G04 #@! TF.GenerationSoftware,KiCad,Pcbnew,7.0.0-da2b9df05c~165~ubuntu22.04.1*
G04 #@! TF.CreationDate,2023-08-11T13:03:54+00:00*
G04 #@! TF.ProjectId,sensus-breakout,73656e73-7573-42d6-9272-65616b6f7574,rev?*
G04 #@! TF.SameCoordinates,Original*
G04 #@! TF.FileFunction,Soldermask,Top*
G04 #@! TF.FilePolarity,Negative*
%FSLAX46Y46*%
G04 Gerber Fmt 4.6, Leading zero omitted, Abs format (unit mm)*
G04 Created by KiCad (PCBNEW 7.0.0-da2b9df05c~165~ubuntu22.04.1) date 2023-08-11 13:03:54*
%MOMM*%
%LPD*%
G01*
G04 APERTURE LIST*
G04 Aperture macros list*
%AMRoundRect*
0 Rectangle with rounded corners*
0 $1 Rounding radius*
0 $2 $3 $4 $5 $6 $7 $8 $9 X,Y pos of 4 corners*
0 Add a 4 corners polygon primitive as box body*
4,1,4,$2,$3,$4,$5,$6,$7,$8,$9,$2,$3,0*
0 Add four circle primitives for the rounded corners*
1,1,$1+$1,$2,$3*
1,1,$1+$1,$4,$5*
1,1,$1+$1,$6,$7*
1,1,$1+$1,$8,$9*
0 Add four rect primitives between the rounded corners*
20,1,$1+$1,$2,$3,$4,$5,0*
20,1,$1+$1,$4,$5,$6,$7,0*
20,1,$1+$1,$6,$7,$8,$9,0*
20,1,$1+$1,$8,$9,$2,$3,0*%
G04 Aperture macros list end*
%ADD10RoundRect,0.135000X0.135000X0.185000X-0.135000X0.185000X-0.135000X-0.185000X0.135000X-0.185000X0*%
%ADD11R,1.700000X1.700000*%
%ADD12O,1.700000X1.700000*%
%ADD13RoundRect,0.218750X-0.218750X-0.256250X0.218750X-0.256250X0.218750X0.256250X-0.218750X0.256250X0*%
%ADD14RoundRect,0.140000X-0.140000X-0.170000X0.140000X-0.170000X0.140000X0.170000X-0.140000X0.170000X0*%
%ADD15RoundRect,0.135000X0.185000X-0.135000X0.185000X0.135000X-0.185000X0.135000X-0.185000X-0.135000X0*%
%ADD16RoundRect,0.200000X0.200000X0.275000X-0.200000X0.275000X-0.200000X-0.275000X0.200000X-0.275000X0*%
%ADD17RoundRect,0.050000X-0.050000X0.387500X-0.050000X-0.387500X0.050000X-0.387500X0.050000X0.387500X0*%
%ADD18RoundRect,0.050000X-0.387500X0.050000X-0.387500X-0.050000X0.387500X-0.050000X0.387500X0.050000X0*%
%ADD19R,3.200000X3.200000*%
%ADD20RoundRect,0.140000X-0.170000X0.140000X-0.170000X-0.140000X0.170000X-0.140000X0.170000X0.140000X0*%
%ADD21R,1.400000X1.200000*%
%ADD22RoundRect,0.140000X0.170000X-0.140000X0.170000X0.140000X-0.170000X0.140000X-0.170000X-0.140000X0*%
%ADD23RoundRect,0.135000X-0.185000X0.135000X-0.185000X-0.135000X0.185000X-0.135000X0.185000X0.135000X0*%
%ADD24RoundRect,0.150000X0.150000X-0.587500X0.150000X0.587500X-0.150000X0.587500X-0.150000X-0.587500X0*%
%ADD25RoundRect,0.100000X0.575000X-0.100000X0.575000X0.100000X-0.575000X0.100000X-0.575000X-0.100000X0*%
%ADD26O,1.600000X0.900000*%
%ADD27RoundRect,0.250000X0.450000X-0.550000X0.450000X0.550000X-0.450000X0.550000X-0.450000X-0.550000X0*%
%ADD28RoundRect,0.250000X0.700000X-0.700000X0.700000X0.700000X-0.700000X0.700000X-0.700000X-0.700000X0*%
%ADD29RoundRect,0.140000X0.219203X0.021213X0.021213X0.219203X-0.219203X-0.021213X-0.021213X-0.219203X0*%
%ADD30R,1.300000X0.300000*%
%ADD31R,2.200000X1.800000*%
%ADD32RoundRect,0.150000X-0.650000X-0.150000X0.650000X-0.150000X0.650000X0.150000X-0.650000X0.150000X0*%
%ADD33RoundRect,0.140000X-0.219203X-0.021213X-0.021213X-0.219203X0.219203X0.021213X0.021213X0.219203X0*%
G04 APERTURE END LIST*
D10*
G04 #@! TO.C,R3*
X148338000Y-97028000D03*
X147318000Y-97028000D03*
G04 #@! TD*
D11*
G04 #@! TO.C,J2*
X148848999Y-94741999D03*
D12*
X146308999Y-94741999D03*
G04 #@! TD*
D13*
G04 #@! TO.C,D1*
X151358500Y-111887000D03*
X152933500Y-111887000D03*
G04 #@! TD*
D14*
G04 #@! TO.C,C1*
X155603000Y-109474000D03*
X156563000Y-109474000D03*
G04 #@! TD*
D15*
G04 #@! TO.C,R5*
X146812000Y-100332000D03*
X146812000Y-99312000D03*
G04 #@! TD*
D16*
G04 #@! TO.C,R1*
X154241000Y-105410000D03*
X152591000Y-105410000D03*
G04 #@! TD*
D17*
G04 #@! TO.C,U2*
X147707000Y-101502500D03*
X147307000Y-101502500D03*
X146907000Y-101502500D03*
X146507000Y-101502500D03*
X146107000Y-101502500D03*
X145707000Y-101502500D03*
X145307000Y-101502500D03*
X144907000Y-101502500D03*
X144507000Y-101502500D03*
X144107000Y-101502500D03*
X143707000Y-101502500D03*
X143307000Y-101502500D03*
X142907000Y-101502500D03*
X142507000Y-101502500D03*
D18*
X141669500Y-102340000D03*
X141669500Y-102740000D03*
X141669500Y-103140000D03*
X141669500Y-103540000D03*
X141669500Y-103940000D03*
X141669500Y-104340000D03*
X141669500Y-104740000D03*
X141669500Y-105140000D03*
X141669500Y-105540000D03*
X141669500Y-105940000D03*
X141669500Y-106340000D03*
X141669500Y-106740000D03*
X141669500Y-107140000D03*
X141669500Y-107540000D03*
D17*
X142507000Y-108377500D03*
X142907000Y-108377500D03*
X143307000Y-108377500D03*
X143707000Y-108377500D03*
X144107000Y-108377500D03*
X144507000Y-108377500D03*
X144907000Y-108377500D03*
X145307000Y-108377500D03*
X145707000Y-108377500D03*
X146107000Y-108377500D03*
X146507000Y-108377500D03*
X146907000Y-108377500D03*
X147307000Y-108377500D03*
X147707000Y-108377500D03*
D18*
X148544500Y-107540000D03*
X148544500Y-107140000D03*
X148544500Y-106740000D03*
X148544500Y-106340000D03*
X148544500Y-105940000D03*
X148544500Y-105540000D03*
X148544500Y-105140000D03*
X148544500Y-104740000D03*
X148544500Y-104340000D03*
X148544500Y-103940000D03*
X148544500Y-103540000D03*
X148544500Y-103140000D03*
X148544500Y-102740000D03*
X148544500Y-102340000D03*
D19*
X145106999Y-104939999D03*
G04 #@! TD*
D20*
G04 #@! TO.C,C2*
X160020000Y-112451000D03*
X160020000Y-113411000D03*
G04 #@! TD*
D21*
G04 #@! TO.C,Y1*
X140842999Y-97613999D03*
X138642999Y-97613999D03*
X138642999Y-99313999D03*
X140842999Y-99313999D03*
G04 #@! TD*
D22*
G04 #@! TO.C,C4*
X142453000Y-98221000D03*
X142453000Y-97261000D03*
G04 #@! TD*
D16*
G04 #@! TO.C,R2*
X154241000Y-106934000D03*
X152591000Y-106934000D03*
G04 #@! TD*
D23*
G04 #@! TO.C,R6*
X145796000Y-99310001D03*
X145796000Y-100330001D03*
G04 #@! TD*
D22*
G04 #@! TO.C,C6*
X144018000Y-111577000D03*
X144018000Y-110617000D03*
G04 #@! TD*
G04 #@! TO.C,C7*
X147701000Y-111605000D03*
X147701000Y-110645000D03*
G04 #@! TD*
D24*
G04 #@! TO.C,U1*
X156784000Y-112873001D03*
X158684000Y-112873001D03*
X157734000Y-110998001D03*
G04 #@! TD*
D20*
G04 #@! TO.C,C12*
X144145000Y-99370000D03*
X144145000Y-100330000D03*
G04 #@! TD*
D25*
G04 #@! TO.C,J5*
X158107000Y-106710000D03*
X158107000Y-106060000D03*
X158107000Y-105410000D03*
X158107000Y-104760000D03*
X158107000Y-104110000D03*
D26*
X160781999Y-108709999D03*
D27*
X158332000Y-108610000D03*
D28*
X160782000Y-106610000D03*
X160782000Y-104210000D03*
D27*
X158332000Y-102210000D03*
D26*
X160781999Y-102109999D03*
G04 #@! TD*
D29*
G04 #@! TO.C,C11*
X151088411Y-109178411D03*
X150409589Y-108499589D03*
G04 #@! TD*
D30*
G04 #@! TO.C,J1*
X136260999Y-103159999D03*
X136260999Y-103659999D03*
X136260999Y-104159999D03*
X136260999Y-104659999D03*
X136260999Y-105159999D03*
X136260999Y-105659999D03*
X136260999Y-106159999D03*
X136260999Y-106659999D03*
X136260999Y-107159999D03*
X136260999Y-107659999D03*
D31*
X133010999Y-101259999D03*
X133010999Y-109559999D03*
G04 #@! TD*
D20*
G04 #@! TO.C,C3*
X160655000Y-94742000D03*
X160655000Y-95702000D03*
G04 #@! TD*
D32*
G04 #@! TO.C,U3*
X151848000Y-95250000D03*
X151848000Y-96520000D03*
X151848000Y-97790000D03*
X151848000Y-99060000D03*
X159048000Y-99060000D03*
X159048000Y-97790000D03*
X159048000Y-96520000D03*
X159048000Y-95250000D03*
G04 #@! TD*
D29*
G04 #@! TO.C,C10*
X151850411Y-108416411D03*
X151171589Y-107737589D03*
G04 #@! TD*
D33*
G04 #@! TO.C,C9*
X138979589Y-104181589D03*
X139658411Y-104860411D03*
G04 #@! TD*
D22*
G04 #@! TO.C,C8*
X149733000Y-110462000D03*
X149733000Y-109502000D03*
G04 #@! TD*
D20*
G04 #@! TO.C,C5*
X137119000Y-98305000D03*
X137119000Y-99265000D03*
G04 #@! TD*
D15*
G04 #@! TO.C,R7*
X154305000Y-112270000D03*
X154305000Y-111250000D03*
G04 #@! TD*
D10*
G04 #@! TO.C,R4*
X152275000Y-93726000D03*
X151255000Y-93726000D03*
G04 #@! TD*
D11*
G04 #@! TO.C,J3*
X137794999Y-116077999D03*
D12*
X140334999Y-116077999D03*
X142874999Y-116077999D03*
X145414999Y-116077999D03*
X147954999Y-116077999D03*
X150494999Y-116077999D03*
X153034999Y-116077999D03*
X155574999Y-116077999D03*
G04 #@! TD*
M02*
