G04 #@! TF.GenerationSoftware,KiCad,Pcbnew,7.0.0-da2b9df05c~165~ubuntu22.04.1*
G04 #@! TF.CreationDate,2023-07-19T14:48:20+00:00*
G04 #@! TF.ProjectId,sensus-breakout,73656e73-7573-42d6-9272-65616b6f7574,rev?*
G04 #@! TF.SameCoordinates,Original*
G04 #@! TF.FileFunction,Legend,Top*
G04 #@! TF.FilePolarity,Positive*
%FSLAX46Y46*%
G04 Gerber Fmt 4.6, Leading zero omitted, Abs format (unit mm)*
G04 Created by KiCad (PCBNEW 7.0.0-da2b9df05c~165~ubuntu22.04.1) date 2023-07-19 14:48:20*
%MOMM*%
%LPD*%
G01*
G04 APERTURE LIST*
%ADD10C,0.150000*%
%ADD11C,0.120000*%
G04 APERTURE END LIST*
D10*
G36*
X103364762Y-77329857D02*
G01*
X98692143Y-77329857D01*
X98692143Y-76755504D01*
X99125487Y-76755504D01*
X99143783Y-76795568D01*
X99180835Y-76819380D01*
X99288693Y-76819380D01*
X99300920Y-76822495D01*
X99320532Y-76815957D01*
X99340355Y-76810137D01*
X99341313Y-76809030D01*
X99460839Y-76769188D01*
X99478413Y-76765366D01*
X99488274Y-76755504D01*
X99982630Y-76755504D01*
X99989549Y-76770656D01*
X99994243Y-76786640D01*
X99998555Y-76790376D01*
X100000926Y-76795568D01*
X100014942Y-76804575D01*
X100027529Y-76815482D01*
X100033175Y-76816293D01*
X100037978Y-76819380D01*
X100054640Y-76819380D01*
X100071124Y-76821750D01*
X100076314Y-76819380D01*
X100546972Y-76819380D01*
X100578450Y-76810137D01*
X100607292Y-76776851D01*
X100610410Y-76755162D01*
X100794524Y-76755162D01*
X100803767Y-76786640D01*
X100837053Y-76815482D01*
X100880648Y-76821750D01*
X100920712Y-76803454D01*
X100944524Y-76766402D01*
X100944524Y-76156337D01*
X101269334Y-76156337D01*
X101270714Y-76175626D01*
X101270714Y-76755162D01*
X101279957Y-76786640D01*
X101313243Y-76815482D01*
X101356838Y-76821750D01*
X101396902Y-76803454D01*
X101420714Y-76766402D01*
X101420714Y-76204018D01*
X101437759Y-76186972D01*
X101506275Y-76152714D01*
X101613722Y-76152714D01*
X101670764Y-76181235D01*
X101699285Y-76238275D01*
X101699285Y-76755162D01*
X101708528Y-76786640D01*
X101741814Y-76815482D01*
X101785409Y-76821750D01*
X101825473Y-76803454D01*
X101849285Y-76766402D01*
X101849285Y-76442051D01*
X102174096Y-76442051D01*
X102175476Y-76461340D01*
X102175476Y-76755162D01*
X102184719Y-76786640D01*
X102218005Y-76815482D01*
X102261600Y-76821750D01*
X102301664Y-76803454D01*
X102325476Y-76766402D01*
X102325476Y-76489732D01*
X102337599Y-76477608D01*
X102577897Y-76798006D01*
X102604178Y-76817642D01*
X102648112Y-76820744D01*
X102686749Y-76799602D01*
X102707823Y-76760926D01*
X102704641Y-76716998D01*
X102444742Y-76370465D01*
X102692085Y-76123123D01*
X102707807Y-76094329D01*
X102704665Y-76050398D01*
X102678271Y-76015140D01*
X102637004Y-75999747D01*
X102593967Y-76009109D01*
X102325476Y-76277600D01*
X102325476Y-75733598D01*
X102316233Y-75702120D01*
X102282947Y-75673278D01*
X102239352Y-75667010D01*
X102199288Y-75685306D01*
X102175476Y-75722358D01*
X102175476Y-76439524D01*
X102174096Y-76442051D01*
X101849285Y-76442051D01*
X101849285Y-76224602D01*
X101851215Y-76206727D01*
X101844360Y-76193017D01*
X101840042Y-76178311D01*
X101834687Y-76173671D01*
X101802292Y-76108880D01*
X101802395Y-76105968D01*
X101792535Y-76089367D01*
X101788926Y-76082148D01*
X101787050Y-76080131D01*
X101779904Y-76068099D01*
X101772339Y-76064316D01*
X101766582Y-76058127D01*
X101753028Y-76054661D01*
X101668579Y-76012437D01*
X101653450Y-76002714D01*
X101638120Y-76002714D01*
X101623037Y-76000000D01*
X101616493Y-76002714D01*
X101492602Y-76002714D01*
X101474727Y-76000784D01*
X101461017Y-76007638D01*
X101446311Y-76011957D01*
X101441671Y-76017311D01*
X101409244Y-76033524D01*
X101378185Y-76006612D01*
X101334590Y-76000344D01*
X101294526Y-76018640D01*
X101270714Y-76055692D01*
X101270714Y-76153810D01*
X101269334Y-76156337D01*
X100944524Y-76156337D01*
X100944524Y-76066932D01*
X100935281Y-76035454D01*
X100901995Y-76006612D01*
X100858400Y-76000344D01*
X100818336Y-76018640D01*
X100794524Y-76055692D01*
X100794524Y-76755162D01*
X100610410Y-76755162D01*
X100613560Y-76733256D01*
X100595264Y-76693192D01*
X100558212Y-76669380D01*
X100135000Y-76669380D01*
X100135000Y-75786424D01*
X100743938Y-75786424D01*
X100747479Y-75802703D01*
X100748668Y-75819317D01*
X100752086Y-75823883D01*
X100753300Y-75829461D01*
X100765083Y-75841244D01*
X100775063Y-75854575D01*
X100780407Y-75856568D01*
X100802955Y-75879116D01*
X100803767Y-75881879D01*
X100814316Y-75891019D01*
X100822681Y-75902194D01*
X100830636Y-75905161D01*
X100837053Y-75910721D01*
X100845457Y-75911929D01*
X100852909Y-75915998D01*
X100858599Y-75915591D01*
X100863948Y-75917586D01*
X100872245Y-75915780D01*
X100880648Y-75916989D01*
X100888372Y-75913461D01*
X100896840Y-75912856D01*
X100901406Y-75909437D01*
X100906985Y-75908224D01*
X100912989Y-75902219D01*
X100920712Y-75898693D01*
X100925303Y-75891548D01*
X100932098Y-75886462D01*
X100934091Y-75881117D01*
X100966386Y-75848822D01*
X100979717Y-75838844D01*
X100985539Y-75823234D01*
X100993522Y-75808615D01*
X100993115Y-75802925D01*
X100995110Y-75797577D01*
X100991568Y-75781294D01*
X100990380Y-75764684D01*
X100986961Y-75760117D01*
X100985748Y-75754540D01*
X100973965Y-75742757D01*
X100963986Y-75729426D01*
X100958641Y-75727432D01*
X100936091Y-75704881D01*
X100935281Y-75702120D01*
X100924730Y-75692977D01*
X100916366Y-75681805D01*
X100908412Y-75678838D01*
X100901995Y-75673278D01*
X100893591Y-75672069D01*
X100886140Y-75668001D01*
X100880447Y-75668408D01*
X100875099Y-75666413D01*
X100866802Y-75668218D01*
X100858400Y-75667010D01*
X100850675Y-75670537D01*
X100842209Y-75671143D01*
X100837641Y-75674562D01*
X100832062Y-75675776D01*
X100826058Y-75681779D01*
X100818336Y-75685306D01*
X100813745Y-75692449D01*
X100806950Y-75697536D01*
X100804955Y-75702882D01*
X100772661Y-75735177D01*
X100759330Y-75745157D01*
X100753508Y-75760764D01*
X100745525Y-75775386D01*
X100745932Y-75781077D01*
X100743938Y-75786424D01*
X100135000Y-75786424D01*
X100135000Y-75733598D01*
X100125757Y-75702120D01*
X100092471Y-75673278D01*
X100048876Y-75667010D01*
X100008812Y-75685306D01*
X99985000Y-75722358D01*
X99985000Y-76739020D01*
X99982630Y-76755504D01*
X99488274Y-76755504D01*
X99489253Y-76754525D01*
X99501837Y-76745780D01*
X99504544Y-76739234D01*
X99586368Y-76657410D01*
X99600377Y-76646132D01*
X99605224Y-76631590D01*
X99612570Y-76618138D01*
X99612064Y-76611070D01*
X99651987Y-76491302D01*
X99658809Y-76480688D01*
X99658809Y-76460009D01*
X99659555Y-76439369D01*
X99658809Y-76438110D01*
X99658809Y-75733598D01*
X99649566Y-75702120D01*
X99616280Y-75673278D01*
X99572685Y-75667010D01*
X99532621Y-75685306D01*
X99508809Y-75722358D01*
X99508809Y-76446496D01*
X99470637Y-76561009D01*
X99400438Y-76631208D01*
X99285923Y-76669380D01*
X99192075Y-76669380D01*
X99160597Y-76678623D01*
X99131755Y-76711909D01*
X99125487Y-76755504D01*
X98692143Y-76755504D01*
X98692143Y-75219143D01*
X103364762Y-75219143D01*
X103364762Y-77329857D01*
G37*
G36*
X97713573Y-63740973D02*
G01*
X97743978Y-63771378D01*
X97778237Y-63839894D01*
X97778237Y-64090198D01*
X97743978Y-64158715D01*
X97713571Y-64189122D01*
X97645056Y-64223380D01*
X97489991Y-64223380D01*
X97452047Y-64204408D01*
X97452047Y-63725686D01*
X97489989Y-63706714D01*
X97645055Y-63706714D01*
X97713573Y-63740973D01*
G37*
G36*
X100062762Y-64883857D02*
G01*
X95390143Y-64883857D01*
X95390143Y-64309162D01*
X95921095Y-64309162D01*
X95930338Y-64340640D01*
X95963624Y-64369482D01*
X96007219Y-64375750D01*
X96047283Y-64357454D01*
X96071095Y-64320402D01*
X96071095Y-63710337D01*
X96395905Y-63710337D01*
X96397285Y-63729626D01*
X96397285Y-64309162D01*
X96406528Y-64340640D01*
X96439814Y-64369482D01*
X96483409Y-64375750D01*
X96523473Y-64357454D01*
X96547285Y-64320402D01*
X96547285Y-63758018D01*
X96564330Y-63740972D01*
X96632846Y-63706714D01*
X96740293Y-63706714D01*
X96797335Y-63735235D01*
X96825856Y-63792275D01*
X96825856Y-64309162D01*
X96835099Y-64340640D01*
X96868385Y-64369482D01*
X96911980Y-64375750D01*
X96952044Y-64357454D01*
X96975856Y-64320402D01*
X96975856Y-63778602D01*
X96977786Y-63760727D01*
X96970931Y-63747017D01*
X96966613Y-63732311D01*
X96961258Y-63727671D01*
X96938467Y-63682088D01*
X97298930Y-63682088D01*
X97302047Y-63691467D01*
X97302047Y-64249451D01*
X97301318Y-64270126D01*
X97302047Y-64271353D01*
X97302047Y-64642496D01*
X97311290Y-64673974D01*
X97344576Y-64702816D01*
X97388171Y-64709084D01*
X97428235Y-64690788D01*
X97452047Y-64653736D01*
X97452047Y-64373380D01*
X97465593Y-64373380D01*
X97480676Y-64376094D01*
X97487220Y-64373380D01*
X97658721Y-64373380D01*
X97676605Y-64375311D01*
X97690318Y-64368454D01*
X97705021Y-64364137D01*
X97709659Y-64358783D01*
X97783128Y-64322048D01*
X97795460Y-64319366D01*
X97810087Y-64304738D01*
X97825205Y-64290677D01*
X97825567Y-64289258D01*
X97852002Y-64262823D01*
X97862852Y-64256380D01*
X97872106Y-64237870D01*
X97881997Y-64219757D01*
X97881892Y-64218298D01*
X97906358Y-64169367D01*
X98204878Y-64169367D01*
X98211734Y-64183080D01*
X98216052Y-64197783D01*
X98221405Y-64202421D01*
X98253801Y-64267212D01*
X98253699Y-64270126D01*
X98263560Y-64286730D01*
X98267168Y-64293945D01*
X98269042Y-64295959D01*
X98276190Y-64307995D01*
X98283754Y-64311777D01*
X98289512Y-64317967D01*
X98303065Y-64321432D01*
X98387517Y-64363658D01*
X98402644Y-64373380D01*
X98417974Y-64373380D01*
X98433057Y-64376094D01*
X98439601Y-64373380D01*
X98563483Y-64373380D01*
X98581367Y-64375311D01*
X98595080Y-64368454D01*
X98609783Y-64364137D01*
X98614421Y-64358783D01*
X98646849Y-64342569D01*
X98677909Y-64369482D01*
X98721504Y-64375750D01*
X98761568Y-64357454D01*
X98785380Y-64320402D01*
X98785380Y-64222283D01*
X98786759Y-64219757D01*
X98785380Y-64200476D01*
X98785380Y-63642838D01*
X98966344Y-63642838D01*
X98984640Y-63682902D01*
X99021692Y-63706714D01*
X99111571Y-63706714D01*
X99111571Y-64151483D01*
X99109640Y-64169367D01*
X99116496Y-64183080D01*
X99120814Y-64197783D01*
X99126167Y-64202421D01*
X99158563Y-64267212D01*
X99158461Y-64270126D01*
X99168322Y-64286730D01*
X99171930Y-64293945D01*
X99173804Y-64295959D01*
X99180952Y-64307995D01*
X99188516Y-64311777D01*
X99194274Y-64317967D01*
X99207827Y-64321432D01*
X99292279Y-64363658D01*
X99307406Y-64373380D01*
X99322736Y-64373380D01*
X99337819Y-64376094D01*
X99344363Y-64373380D01*
X99435448Y-64373380D01*
X99466926Y-64364137D01*
X99495768Y-64330851D01*
X99502036Y-64287256D01*
X99483740Y-64247192D01*
X99446688Y-64223380D01*
X99347134Y-64223380D01*
X99290091Y-64194858D01*
X99261571Y-64137818D01*
X99261571Y-63706714D01*
X99435448Y-63706714D01*
X99466926Y-63697471D01*
X99495768Y-63664185D01*
X99502036Y-63620590D01*
X99483740Y-63580526D01*
X99446688Y-63556714D01*
X99261571Y-63556714D01*
X99261571Y-63287598D01*
X99252328Y-63256120D01*
X99219042Y-63227278D01*
X99175447Y-63221010D01*
X99135383Y-63239306D01*
X99111571Y-63276358D01*
X99111571Y-63556714D01*
X99032932Y-63556714D01*
X99001454Y-63565957D01*
X98972612Y-63599243D01*
X98966344Y-63642838D01*
X98785380Y-63642838D01*
X98785380Y-63620932D01*
X98776137Y-63589454D01*
X98742851Y-63560612D01*
X98699256Y-63554344D01*
X98659192Y-63572640D01*
X98635380Y-63609692D01*
X98635380Y-64172076D01*
X98618333Y-64189122D01*
X98549818Y-64223380D01*
X98442372Y-64223380D01*
X98385329Y-64194858D01*
X98356809Y-64137818D01*
X98356809Y-63620932D01*
X98347566Y-63589454D01*
X98314280Y-63560612D01*
X98270685Y-63554344D01*
X98230621Y-63572640D01*
X98206809Y-63609692D01*
X98206809Y-64151483D01*
X98204878Y-64169367D01*
X97906358Y-64169367D01*
X97918515Y-64145052D01*
X97928237Y-64129926D01*
X97928237Y-64114596D01*
X97930951Y-64099513D01*
X97928237Y-64092969D01*
X97928237Y-63826221D01*
X97930167Y-63808346D01*
X97923312Y-63794636D01*
X97918994Y-63779930D01*
X97913639Y-63775290D01*
X97876905Y-63701821D01*
X97874223Y-63689491D01*
X97859603Y-63674871D01*
X97845534Y-63659746D01*
X97844115Y-63659383D01*
X97817680Y-63632948D01*
X97811237Y-63622099D01*
X97792736Y-63612848D01*
X97774614Y-63602953D01*
X97773153Y-63603057D01*
X97699912Y-63566437D01*
X97684783Y-63556714D01*
X97669453Y-63556714D01*
X97654370Y-63554000D01*
X97647826Y-63556714D01*
X97476316Y-63556714D01*
X97458441Y-63554784D01*
X97444731Y-63561638D01*
X97430025Y-63565957D01*
X97425385Y-63571311D01*
X97423153Y-63572427D01*
X97409518Y-63560612D01*
X97365923Y-63554344D01*
X97325859Y-63572640D01*
X97302047Y-63609692D01*
X97302047Y-63669898D01*
X97298930Y-63682088D01*
X96938467Y-63682088D01*
X96928863Y-63662880D01*
X96928966Y-63659968D01*
X96919106Y-63643367D01*
X96915497Y-63636148D01*
X96913621Y-63634131D01*
X96906475Y-63622099D01*
X96898910Y-63618316D01*
X96893153Y-63612127D01*
X96879599Y-63608661D01*
X96795150Y-63566437D01*
X96780021Y-63556714D01*
X96764691Y-63556714D01*
X96749608Y-63554000D01*
X96743064Y-63556714D01*
X96619173Y-63556714D01*
X96601298Y-63554784D01*
X96587588Y-63561638D01*
X96572882Y-63565957D01*
X96568242Y-63571311D01*
X96535815Y-63587524D01*
X96504756Y-63560612D01*
X96461161Y-63554344D01*
X96421097Y-63572640D01*
X96397285Y-63609692D01*
X96397285Y-63707810D01*
X96395905Y-63710337D01*
X96071095Y-63710337D01*
X96071095Y-63287598D01*
X96061852Y-63256120D01*
X96028566Y-63227278D01*
X95984971Y-63221010D01*
X95944907Y-63239306D01*
X95921095Y-63276358D01*
X95921095Y-64309162D01*
X95390143Y-64309162D01*
X95390143Y-62773143D01*
X100062762Y-62773143D01*
X100062762Y-64883857D01*
G37*
D11*
G04 #@! TO.C,C1*
X101960164Y-58179000D02*
X102175836Y-58179000D01*
X101960164Y-58899000D02*
X102175836Y-58899000D01*
G04 #@! TO.C,C2*
X98872000Y-61479164D02*
X98872000Y-61694836D01*
X98152000Y-61479164D02*
X98152000Y-61694836D01*
G04 #@! TO.C,J3*
X95636000Y-84288000D02*
X95636000Y-82963000D01*
X95571000Y-82963000D02*
X95636000Y-82963000D01*
X95571000Y-82963000D02*
X95571000Y-79433000D01*
X101976000Y-82963000D02*
X102041000Y-82963000D01*
X102041000Y-82963000D02*
X102041000Y-79433000D01*
X95571000Y-79433000D02*
X95636000Y-79433000D01*
X101976000Y-79433000D02*
X102041000Y-79433000D01*
G04 #@! TO.C,J2*
X104461000Y-58614000D02*
X105791000Y-58614000D01*
X104461000Y-59944000D02*
X104461000Y-58614000D01*
X104461000Y-61214000D02*
X104461000Y-84134000D01*
X104461000Y-61214000D02*
X107121000Y-61214000D01*
X104461000Y-84134000D02*
X107121000Y-84134000D01*
X107121000Y-61214000D02*
X107121000Y-84134000D01*
G04 #@! TO.C,U1*
X101130500Y-59265000D02*
X99455500Y-59265000D01*
X101130500Y-59265000D02*
X101780500Y-59265000D01*
X101130500Y-62385000D02*
X100480500Y-62385000D01*
X101130500Y-62385000D02*
X101780500Y-62385000D01*
G04 #@! TO.C,J5*
X105636000Y-57631000D02*
X105636000Y-53271000D01*
X105636000Y-57631000D02*
X103136000Y-57631000D01*
X103136000Y-57631000D02*
X103136000Y-57831000D01*
X102476000Y-57831000D02*
X103136000Y-57831000D01*
X99616000Y-57631000D02*
X97116000Y-57631000D01*
X97116000Y-57631000D02*
X97116000Y-53271000D01*
G04 #@! TO.C,J1*
X99982000Y-66248999D02*
X98642000Y-66248999D01*
X95922000Y-66248999D02*
X94182000Y-66248999D01*
X94182000Y-66248999D02*
X94182000Y-74548999D01*
X99982000Y-67738999D02*
X99982000Y-66248999D01*
X99982000Y-67738999D02*
X101182000Y-67738999D01*
X99982000Y-73058999D02*
X99982000Y-74548999D01*
X99982000Y-74548999D02*
X98642000Y-74548999D01*
X94182000Y-74548999D02*
X95922000Y-74548999D01*
G04 #@! TD*
M02*
