M48
; DRILL file {KiCad 7.0.0-da2b9df05c~165~ubuntu22.04.1} date Fri Aug 11 13:03:54 2023
; FORMAT={-:-/ absolute / metric / decimal}
; #@! TF.CreationDate,2023-08-11T13:03:54+00:00
; #@! TF.GenerationSoftware,Kicad,Pcbnew,7.0.0-da2b9df05c~165~ubuntu22.04.1
; #@! TF.FileFunction,MixedPlating,1,2
FMAT,2
METRIC
; #@! TA.AperFunction,Plated,PTH,ViaDrill
T1C0.300
; #@! TA.AperFunction,Plated,PTH,ViaDrill
T2C0.400
; #@! TA.AperFunction,Plated,PTH,ComponentDrill
T3C0.500
; #@! TA.AperFunction,Plated,PTH,ComponentDrill
T4C1.000
%
G90
G05
T1
X145.669Y-109.728
X147.701Y-107.569
X149.606Y-105.029
X150.495Y-112.014
T2
X131.064Y-106.807
X131.064Y-109.347
X131.064Y-112.014
X131.191Y-97.155
X131.191Y-114.554
X131.953Y-94.996
X132.588Y-116.586
X132.715Y-103.251
X133.731Y-103.251
X133.858Y-93.599
X134.758Y-103.174
X135.001Y-112.014
X135.001Y-114.554
X135.001Y-117.348
X136.017Y-98.806
X136.144Y-102.616
X136.398Y-93.599
X137.16Y-97.155
X137.16Y-100.711
X138.684Y-103.505
X139.065Y-93.472
X141.605Y-93.472
X142.494Y-99.314
X143.256Y-111.506
X143.891Y-93.472
X144.145Y-98.552
X144.145Y-104.013
X144.145Y-105.918
X146.05Y-104.013
X146.05Y-105.918
X149.741Y-111.353
X150.749Y-110.49
X150.876Y-101.346
X151.638Y-104.521
X151.765Y-109.855
X151.892Y-100.203
X152.781Y-109.22
X153.289Y-99.06
X153.67Y-102.87
X153.797Y-95.25
X153.797Y-97.663
X154.178Y-109.474
X155.194Y-101.346
X155.575Y-108.077
X155.575Y-111.506
X155.575Y-112.903
X156.591Y-102.235
X156.972Y-104.14
X157.099Y-95.25
X157.099Y-97.663
X157.353Y-108.585
X157.861Y-117.348
X159.512Y-93.726
X160.02Y-111.252
X160.528Y-116.459
X160.762Y-110.084
X161.163Y-100.584
X161.671Y-95.377
X161.925Y-113.792
X162.052Y-111.379
T4
X137.795Y-116.078
X140.335Y-116.078
X142.875Y-116.078
X145.415Y-116.078
X146.309Y-94.742
X147.955Y-116.078
X148.849Y-94.742
X150.495Y-116.078
X153.035Y-116.078
X155.575Y-116.078
T3
X161.132Y-102.11G85X160.432Y-102.11
G05
X161.132Y-108.71G85X160.432Y-108.71
G05
T0
M30
