M48
; DRILL file {KiCad 7.0.0-da2b9df05c~165~ubuntu22.04.1} date Wed Jul 19 14:48:20 2023
; FORMAT={-:-/ absolute / metric / decimal}
; #@! TF.CreationDate,2023-07-19T14:48:20+00:00
; #@! TF.GenerationSoftware,Kicad,Pcbnew,7.0.0-da2b9df05c~165~ubuntu22.04.1
; #@! TF.FileFunction,MixedPlating,1,2
FMAT,2
METRIC
; #@! TA.AperFunction,Plated,PTH,ViaDrill
T1C0.400
; #@! TA.AperFunction,Plated,PTH,ComponentDrill
T2C0.500
; #@! TA.AperFunction,Plated,PTH,ComponentDrill
T3C1.000
%
G90
G05
T1
X95.25Y-55.118
X95.25Y-57.404
X95.25Y-59.944
X95.25Y-62.484
X95.25Y-65.024
X95.25Y-67.564
X95.25Y-69.85
X96.266Y-52.832
X97.028Y-59.944
X97.536Y-81.28
X98.552Y-59.944
X98.806Y-81.28
X100.076Y-81.28
X100.203Y-52.578
X100.584Y-63.5
X100.584Y-65.024
X101.346Y-81.28
X102.108Y-63.5
X102.108Y-65.024
X102.616Y-52.578
X103.124Y-81.28
X103.124Y-82.804
X103.124Y-84.582
X105.791Y-84.582
X106.68Y-52.832
X107.696Y-55.118
X107.696Y-57.404
X107.696Y-59.944
X107.696Y-62.484
X107.696Y-65.024
X107.696Y-67.564
X107.696Y-70.104
X107.696Y-72.644
X107.696Y-75.184
X107.696Y-77.724
X107.696Y-80.264
X107.696Y-82.804
T3
X105.791Y-59.944
X105.791Y-62.484
X105.791Y-65.024
X105.791Y-67.564
X105.791Y-70.104
X105.791Y-72.644
X105.791Y-75.184
X105.791Y-77.724
X105.791Y-80.264
X105.791Y-82.804
T2
X98.076Y-53.871G85X98.076Y-54.571
G05
X104.676Y-53.871G85X104.676Y-54.571
G05
T0
M30
