G04 #@! TF.GenerationSoftware,KiCad,Pcbnew,7.0.0-da2b9df05c~165~ubuntu22.04.1*
G04 #@! TF.CreationDate,2023-08-11T13:03:54+00:00*
G04 #@! TF.ProjectId,sensus-breakout,73656e73-7573-42d6-9272-65616b6f7574,rev?*
G04 #@! TF.SameCoordinates,Original*
G04 #@! TF.FileFunction,Copper,L2,Bot*
G04 #@! TF.FilePolarity,Positive*
%FSLAX46Y46*%
G04 Gerber Fmt 4.6, Leading zero omitted, Abs format (unit mm)*
G04 Created by KiCad (PCBNEW 7.0.0-da2b9df05c~165~ubuntu22.04.1) date 2023-08-11 13:03:54*
%MOMM*%
%LPD*%
G01*
G04 APERTURE LIST*
G04 #@! TA.AperFunction,ComponentPad*
%ADD10R,1.700000X1.700000*%
G04 #@! TD*
G04 #@! TA.AperFunction,ComponentPad*
%ADD11O,1.700000X1.700000*%
G04 #@! TD*
G04 #@! TA.AperFunction,ComponentPad*
%ADD12O,1.600000X0.900000*%
G04 #@! TD*
G04 #@! TA.AperFunction,ViaPad*
%ADD13C,0.800000*%
G04 #@! TD*
G04 #@! TA.AperFunction,ViaPad*
%ADD14C,0.600000*%
G04 #@! TD*
G04 #@! TA.AperFunction,Conductor*
%ADD15C,0.200000*%
G04 #@! TD*
G04 APERTURE END LIST*
D10*
G04 #@! TO.P,J2,1,Pin_1*
G04 #@! TO.N,Net-(J2-Pin_1)*
X148848999Y-94741999D03*
D11*
G04 #@! TO.P,J2,2,Pin_2*
G04 #@! TO.N,GND*
X146308999Y-94741999D03*
G04 #@! TD*
D12*
G04 #@! TO.P,J5,6,Shield*
G04 #@! TO.N,GND*
X160781999Y-108709999D03*
X160781999Y-102109999D03*
G04 #@! TD*
D10*
G04 #@! TO.P,J3,1,Pin_1*
G04 #@! TO.N,+3.3V*
X137794999Y-116077999D03*
D11*
G04 #@! TO.P,J3,2,Pin_2*
G04 #@! TO.N,Net-(J1-Pin_9)*
X140334999Y-116077999D03*
G04 #@! TO.P,J3,3,Pin_3*
G04 #@! TO.N,Net-(J1-Pin_8)*
X142874999Y-116077999D03*
G04 #@! TO.P,J3,4,Pin_4*
G04 #@! TO.N,Net-(J1-Pin_7)*
X145414999Y-116077999D03*
G04 #@! TO.P,J3,5,Pin_5*
G04 #@! TO.N,Net-(J1-Pin_4)*
X147954999Y-116077999D03*
G04 #@! TO.P,J3,6,Pin_6*
G04 #@! TO.N,Net-(J1-Pin_3)*
X150494999Y-116077999D03*
G04 #@! TO.P,J3,7,Pin_7*
G04 #@! TO.N,Net-(J1-Pin_2)*
X153034999Y-116077999D03*
G04 #@! TO.P,J3,8,Pin_8*
G04 #@! TO.N,GND*
X155574999Y-116077999D03*
G04 #@! TD*
D13*
G04 #@! TO.N,Net-(J1-Pin_2)*
X134758024Y-103174084D03*
G04 #@! TO.N,Net-(J1-Pin_3)*
X133731000Y-103251000D03*
G04 #@! TO.N,Net-(J1-Pin_4)*
X132715000Y-103251000D03*
G04 #@! TO.N,GND*
X154178000Y-109474000D03*
X161671000Y-95377000D03*
X157353000Y-108585000D03*
X131064000Y-112014000D03*
X135001000Y-112014000D03*
X160020000Y-111252000D03*
X131953000Y-94996000D03*
X157861000Y-117348000D03*
X137160000Y-100711000D03*
X149740644Y-111353010D03*
X162052000Y-111379000D03*
X157099000Y-95250000D03*
X143891000Y-93472000D03*
X142494000Y-99314000D03*
X153797000Y-95250000D03*
X131191000Y-97155000D03*
X155575000Y-108077000D03*
X144145000Y-104013000D03*
X144145000Y-98552000D03*
X143256000Y-111506000D03*
X153670000Y-102870000D03*
X155575000Y-111506000D03*
X144145000Y-105918000D03*
X139065000Y-93472000D03*
X135001000Y-114554000D03*
X136144000Y-102616000D03*
X136017000Y-98806000D03*
X161925000Y-113792000D03*
X152781000Y-109220000D03*
X156591000Y-102235000D03*
X157099000Y-97663000D03*
X135001000Y-117348000D03*
X153797000Y-97663000D03*
X131191000Y-114554000D03*
X160528000Y-116459000D03*
X150749000Y-110490000D03*
X155194000Y-101346000D03*
X160761908Y-110084430D03*
X153289000Y-99060000D03*
X155575000Y-112903000D03*
X146050000Y-105918000D03*
X138684000Y-103505000D03*
X151638000Y-104521000D03*
X132588000Y-116586000D03*
X141605000Y-93472000D03*
X137160000Y-97155000D03*
X159512000Y-93726000D03*
X131064000Y-109347000D03*
X131064000Y-106807000D03*
X151765000Y-109855000D03*
X151892000Y-100203000D03*
X156972000Y-104140000D03*
X146050000Y-104013000D03*
X161163000Y-100584000D03*
X133858000Y-93599000D03*
X150876000Y-101346000D03*
X136398000Y-93599000D03*
D14*
G04 #@! TO.N,+3.3V*
X147701000Y-107569000D03*
X149606000Y-105029000D03*
G04 #@! TO.N,/STS*
X145668999Y-109728001D03*
X150495000Y-112014000D03*
G04 #@! TD*
D15*
G04 #@! TO.N,Net-(J1-Pin_2)*
X134758024Y-106945024D02*
X140081000Y-112268000D01*
X152917631Y-116078000D02*
X153035000Y-116078000D01*
X140081000Y-112268000D02*
X149107631Y-112268000D01*
X134758024Y-103174084D02*
X134758024Y-106945024D01*
X149107631Y-112268000D02*
X152917631Y-116078000D01*
G04 #@! TO.N,Net-(J1-Pin_3)*
X139915315Y-112668000D02*
X147085000Y-112668000D01*
X133731000Y-106483685D02*
X139915315Y-112668000D01*
X147085000Y-112668000D02*
X150495000Y-116078000D01*
X133731000Y-103251000D02*
X133731000Y-106483685D01*
G04 #@! TO.N,Net-(J1-Pin_4)*
X132715000Y-106102685D02*
X139680315Y-113068000D01*
X144945000Y-113068000D02*
X147955000Y-116078000D01*
X139680315Y-113068000D02*
X144945000Y-113068000D01*
X132715000Y-103251000D02*
X132715000Y-106102685D01*
G04 #@! TO.N,+3.3V*
X147701000Y-106934000D02*
X147701000Y-107569000D01*
X149606000Y-105029000D02*
X147701000Y-106934000D01*
G04 #@! TO.N,/STS*
X150495000Y-112014000D02*
X149479000Y-112014000D01*
X149479000Y-112014000D02*
X147193001Y-109728001D01*
X147193001Y-109728001D02*
X145668999Y-109728001D01*
G04 #@! TD*
G04 #@! TA.AperFunction,Conductor*
G04 #@! TO.N,GND*
G36*
X158708938Y-92960566D02*
G01*
X159068233Y-92977179D01*
X159073931Y-92977706D01*
X159428749Y-93027202D01*
X159434360Y-93028251D01*
X159783097Y-93110274D01*
X159788589Y-93111837D01*
X160128275Y-93225689D01*
X160133576Y-93227742D01*
X160461323Y-93372457D01*
X160466441Y-93375005D01*
X160779418Y-93549333D01*
X160784276Y-93552342D01*
X160807718Y-93568400D01*
X161079820Y-93754796D01*
X161084389Y-93758246D01*
X161359982Y-93987096D01*
X161359996Y-93987107D01*
X161364229Y-93990966D01*
X161617545Y-94244283D01*
X161621395Y-94248506D01*
X161850258Y-94524117D01*
X161853711Y-94528690D01*
X162056164Y-94824236D01*
X162059180Y-94829107D01*
X162233499Y-95142069D01*
X162236048Y-95147188D01*
X162380753Y-95474915D01*
X162382817Y-95480244D01*
X162496664Y-95819916D01*
X162498232Y-95825428D01*
X162580248Y-96174141D01*
X162581301Y-96179773D01*
X162630794Y-96534573D01*
X162631322Y-96540278D01*
X162647949Y-96899898D01*
X162648015Y-96902762D01*
X162648015Y-113917560D01*
X162647949Y-113920424D01*
X162631337Y-114279722D01*
X162630809Y-114285427D01*
X162581316Y-114640229D01*
X162580263Y-114645861D01*
X162498246Y-114994576D01*
X162496678Y-115000087D01*
X162382832Y-115339760D01*
X162380764Y-115345096D01*
X162341803Y-115433337D01*
X162236066Y-115672808D01*
X162233512Y-115677937D01*
X162059193Y-115990900D01*
X162056177Y-115995771D01*
X161853723Y-116291318D01*
X161850270Y-116295891D01*
X161621406Y-116571502D01*
X161617546Y-116575736D01*
X161364241Y-116829043D01*
X161360006Y-116832903D01*
X161084401Y-117061763D01*
X161079829Y-117065216D01*
X160784284Y-117267670D01*
X160779420Y-117270682D01*
X160466449Y-117445006D01*
X160461320Y-117447560D01*
X160357515Y-117493394D01*
X160133601Y-117592262D01*
X160128274Y-117594326D01*
X159788599Y-117708174D01*
X159783088Y-117709742D01*
X159434377Y-117791760D01*
X159428744Y-117792813D01*
X159073939Y-117842307D01*
X159068234Y-117842835D01*
X158709263Y-117859434D01*
X158706398Y-117859500D01*
X134536926Y-117859500D01*
X134534061Y-117859434D01*
X134174766Y-117842820D01*
X134169061Y-117842292D01*
X133814258Y-117792798D01*
X133808626Y-117791745D01*
X133459914Y-117709728D01*
X133454403Y-117708160D01*
X133114730Y-117594312D01*
X133109410Y-117592252D01*
X132781684Y-117447546D01*
X132776557Y-117444993D01*
X132463587Y-117270669D01*
X132458715Y-117267652D01*
X132163179Y-117065203D01*
X132158607Y-117061751D01*
X132034346Y-116958566D01*
X131883001Y-116832890D01*
X131878769Y-116829032D01*
X131762324Y-116712587D01*
X131625453Y-116575715D01*
X131621604Y-116571493D01*
X131392741Y-116295882D01*
X131389288Y-116291309D01*
X131186835Y-115995763D01*
X131183819Y-115990892D01*
X131168497Y-115963384D01*
X131009494Y-115677919D01*
X131006955Y-115672819D01*
X130862241Y-115345072D01*
X130860182Y-115339755D01*
X130815660Y-115206920D01*
X130746333Y-115000076D01*
X130744769Y-114994578D01*
X130662749Y-114645850D01*
X130661698Y-114640226D01*
X130652584Y-114574891D01*
X130612203Y-114285413D01*
X130611677Y-114279720D01*
X130595051Y-113920101D01*
X130594985Y-113917237D01*
X130594985Y-113874829D01*
X130594984Y-103251000D01*
X131809540Y-103251000D01*
X131829326Y-103439256D01*
X131829327Y-103439259D01*
X131887818Y-103619277D01*
X131887821Y-103619284D01*
X131982467Y-103783216D01*
X132043387Y-103850874D01*
X132082650Y-103894480D01*
X132112880Y-103957471D01*
X132114500Y-103977452D01*
X132114500Y-106059256D01*
X132113969Y-106067358D01*
X132109318Y-106102684D01*
X132109318Y-106102685D01*
X132114500Y-106142045D01*
X132129955Y-106259445D01*
X132129956Y-106259447D01*
X132190464Y-106405526D01*
X132286718Y-106530967D01*
X132314995Y-106552665D01*
X132321085Y-106558005D01*
X135840603Y-110077523D01*
X139224984Y-113461904D01*
X139230335Y-113468005D01*
X139252033Y-113496282D01*
X139377474Y-113592536D01*
X139523553Y-113653044D01*
X139601933Y-113663363D01*
X139680314Y-113673682D01*
X139680315Y-113673682D01*
X139715644Y-113669030D01*
X139723743Y-113668500D01*
X144644903Y-113668500D01*
X144711942Y-113688185D01*
X144732584Y-113704819D01*
X145541333Y-114513568D01*
X145574818Y-114574891D01*
X145569834Y-114644583D01*
X145527962Y-114700516D01*
X145462498Y-114724933D01*
X145442844Y-114724777D01*
X145415001Y-114722341D01*
X145414999Y-114722341D01*
X145179596Y-114742936D01*
X145179586Y-114742938D01*
X144951344Y-114804094D01*
X144951335Y-114804098D01*
X144737171Y-114903964D01*
X144737169Y-114903965D01*
X144543597Y-115039505D01*
X144376505Y-115206597D01*
X144246575Y-115392158D01*
X144191998Y-115435783D01*
X144122500Y-115442977D01*
X144060145Y-115411454D01*
X144043425Y-115392158D01*
X143913494Y-115206597D01*
X143746402Y-115039506D01*
X143746395Y-115039501D01*
X143552834Y-114903967D01*
X143552830Y-114903965D01*
X143504075Y-114881230D01*
X143338663Y-114804097D01*
X143338659Y-114804096D01*
X143338655Y-114804094D01*
X143110413Y-114742938D01*
X143110403Y-114742936D01*
X142875001Y-114722341D01*
X142874999Y-114722341D01*
X142639596Y-114742936D01*
X142639586Y-114742938D01*
X142411344Y-114804094D01*
X142411335Y-114804098D01*
X142197171Y-114903964D01*
X142197169Y-114903965D01*
X142003597Y-115039505D01*
X141836505Y-115206597D01*
X141706575Y-115392158D01*
X141651998Y-115435783D01*
X141582500Y-115442977D01*
X141520145Y-115411454D01*
X141503425Y-115392158D01*
X141373494Y-115206597D01*
X141206402Y-115039506D01*
X141206395Y-115039501D01*
X141012834Y-114903967D01*
X141012830Y-114903965D01*
X140964075Y-114881230D01*
X140798663Y-114804097D01*
X140798659Y-114804096D01*
X140798655Y-114804094D01*
X140570413Y-114742938D01*
X140570403Y-114742936D01*
X140335001Y-114722341D01*
X140334999Y-114722341D01*
X140099596Y-114742936D01*
X140099586Y-114742938D01*
X139871344Y-114804094D01*
X139871335Y-114804098D01*
X139657171Y-114903964D01*
X139657169Y-114903965D01*
X139463600Y-115039503D01*
X139341673Y-115161430D01*
X139280350Y-115194914D01*
X139210658Y-115189930D01*
X139154725Y-115148058D01*
X139137810Y-115117081D01*
X139088797Y-114985671D01*
X139088793Y-114985664D01*
X139002547Y-114870455D01*
X139002544Y-114870452D01*
X138887335Y-114784206D01*
X138887328Y-114784202D01*
X138752482Y-114733908D01*
X138752483Y-114733908D01*
X138692883Y-114727501D01*
X138692881Y-114727500D01*
X138692873Y-114727500D01*
X138692864Y-114727500D01*
X136897129Y-114727500D01*
X136897123Y-114727501D01*
X136837516Y-114733908D01*
X136702671Y-114784202D01*
X136702664Y-114784206D01*
X136587455Y-114870452D01*
X136587452Y-114870455D01*
X136501206Y-114985664D01*
X136501202Y-114985671D01*
X136450908Y-115120517D01*
X136444501Y-115180116D01*
X136444500Y-115180135D01*
X136444500Y-116975870D01*
X136444501Y-116975876D01*
X136450908Y-117035483D01*
X136501202Y-117170328D01*
X136501206Y-117170335D01*
X136587452Y-117285544D01*
X136587455Y-117285547D01*
X136702664Y-117371793D01*
X136702671Y-117371797D01*
X136837517Y-117422091D01*
X136837516Y-117422091D01*
X136844444Y-117422835D01*
X136897127Y-117428500D01*
X138692872Y-117428499D01*
X138752483Y-117422091D01*
X138887331Y-117371796D01*
X139002546Y-117285546D01*
X139088796Y-117170331D01*
X139137810Y-117038916D01*
X139179681Y-116982984D01*
X139245145Y-116958566D01*
X139313418Y-116973417D01*
X139341673Y-116994569D01*
X139463599Y-117116495D01*
X139560384Y-117184265D01*
X139657165Y-117252032D01*
X139657167Y-117252033D01*
X139657170Y-117252035D01*
X139871337Y-117351903D01*
X140099592Y-117413063D01*
X140276034Y-117428500D01*
X140334999Y-117433659D01*
X140335000Y-117433659D01*
X140335001Y-117433659D01*
X140393966Y-117428500D01*
X140570408Y-117413063D01*
X140798663Y-117351903D01*
X141012830Y-117252035D01*
X141206401Y-117116495D01*
X141373495Y-116949401D01*
X141503424Y-116763842D01*
X141558002Y-116720217D01*
X141627500Y-116713023D01*
X141689855Y-116744546D01*
X141706575Y-116763842D01*
X141836281Y-116949082D01*
X141836505Y-116949401D01*
X142003599Y-117116495D01*
X142100384Y-117184265D01*
X142197165Y-117252032D01*
X142197167Y-117252033D01*
X142197170Y-117252035D01*
X142411337Y-117351903D01*
X142639592Y-117413063D01*
X142816034Y-117428500D01*
X142874999Y-117433659D01*
X142875000Y-117433659D01*
X142875001Y-117433659D01*
X142933966Y-117428500D01*
X143110408Y-117413063D01*
X143338663Y-117351903D01*
X143552830Y-117252035D01*
X143746401Y-117116495D01*
X143913495Y-116949401D01*
X144043424Y-116763842D01*
X144098002Y-116720217D01*
X144167500Y-116713023D01*
X144229855Y-116744546D01*
X144246575Y-116763842D01*
X144376281Y-116949082D01*
X144376505Y-116949401D01*
X144543599Y-117116495D01*
X144640384Y-117184265D01*
X144737165Y-117252032D01*
X144737167Y-117252033D01*
X144737170Y-117252035D01*
X144951337Y-117351903D01*
X145179592Y-117413063D01*
X145356034Y-117428500D01*
X145414999Y-117433659D01*
X145415000Y-117433659D01*
X145415001Y-117433659D01*
X145473966Y-117428500D01*
X145650408Y-117413063D01*
X145878663Y-117351903D01*
X146092830Y-117252035D01*
X146286401Y-117116495D01*
X146453495Y-116949401D01*
X146583424Y-116763842D01*
X146638002Y-116720217D01*
X146707500Y-116713023D01*
X146769855Y-116744546D01*
X146786575Y-116763842D01*
X146916281Y-116949082D01*
X146916505Y-116949401D01*
X147083599Y-117116495D01*
X147180384Y-117184265D01*
X147277165Y-117252032D01*
X147277167Y-117252033D01*
X147277170Y-117252035D01*
X147491337Y-117351903D01*
X147719592Y-117413063D01*
X147896034Y-117428500D01*
X147954999Y-117433659D01*
X147955000Y-117433659D01*
X147955001Y-117433659D01*
X148013966Y-117428500D01*
X148190408Y-117413063D01*
X148418663Y-117351903D01*
X148632830Y-117252035D01*
X148826401Y-117116495D01*
X148993495Y-116949401D01*
X149123424Y-116763842D01*
X149178002Y-116720217D01*
X149247500Y-116713023D01*
X149309855Y-116744546D01*
X149326575Y-116763842D01*
X149456281Y-116949082D01*
X149456505Y-116949401D01*
X149623599Y-117116495D01*
X149720384Y-117184265D01*
X149817165Y-117252032D01*
X149817167Y-117252033D01*
X149817170Y-117252035D01*
X150031337Y-117351903D01*
X150259592Y-117413063D01*
X150436034Y-117428500D01*
X150494999Y-117433659D01*
X150495000Y-117433659D01*
X150495001Y-117433659D01*
X150553966Y-117428500D01*
X150730408Y-117413063D01*
X150958663Y-117351903D01*
X151172830Y-117252035D01*
X151366401Y-117116495D01*
X151533495Y-116949401D01*
X151663424Y-116763842D01*
X151718002Y-116720217D01*
X151787500Y-116713023D01*
X151849855Y-116744546D01*
X151866575Y-116763842D01*
X151996281Y-116949082D01*
X151996505Y-116949401D01*
X152163599Y-117116495D01*
X152260384Y-117184264D01*
X152357165Y-117252032D01*
X152357167Y-117252033D01*
X152357170Y-117252035D01*
X152571337Y-117351903D01*
X152799592Y-117413063D01*
X152976034Y-117428500D01*
X153034999Y-117433659D01*
X153035000Y-117433659D01*
X153035001Y-117433659D01*
X153093966Y-117428500D01*
X153270408Y-117413063D01*
X153498663Y-117351903D01*
X153712830Y-117252035D01*
X153906401Y-117116495D01*
X154073495Y-116949401D01*
X154203730Y-116763405D01*
X154258307Y-116719781D01*
X154327805Y-116712587D01*
X154390160Y-116744110D01*
X154406879Y-116763405D01*
X154536890Y-116949078D01*
X154703917Y-117116105D01*
X154897421Y-117251600D01*
X155111507Y-117351429D01*
X155111516Y-117351433D01*
X155325000Y-117408634D01*
X155325000Y-116513501D01*
X155432685Y-116562680D01*
X155539237Y-116578000D01*
X155610763Y-116578000D01*
X155717315Y-116562680D01*
X155825000Y-116513501D01*
X155825000Y-117408633D01*
X156038483Y-117351433D01*
X156038492Y-117351429D01*
X156252578Y-117251600D01*
X156446082Y-117116105D01*
X156613105Y-116949082D01*
X156748600Y-116755578D01*
X156848429Y-116541492D01*
X156848432Y-116541486D01*
X156905636Y-116328000D01*
X156008686Y-116328000D01*
X156034493Y-116287844D01*
X156075000Y-116149889D01*
X156075000Y-116006111D01*
X156034493Y-115868156D01*
X156008686Y-115828000D01*
X156905636Y-115828000D01*
X156905635Y-115827999D01*
X156848432Y-115614513D01*
X156848429Y-115614507D01*
X156748600Y-115400422D01*
X156748599Y-115400420D01*
X156613113Y-115206926D01*
X156613108Y-115206920D01*
X156446082Y-115039894D01*
X156252578Y-114904399D01*
X156038492Y-114804570D01*
X156038486Y-114804567D01*
X155825000Y-114747364D01*
X155825000Y-115642498D01*
X155717315Y-115593320D01*
X155610763Y-115578000D01*
X155539237Y-115578000D01*
X155432685Y-115593320D01*
X155325000Y-115642498D01*
X155325000Y-114747364D01*
X155324999Y-114747364D01*
X155111513Y-114804567D01*
X155111507Y-114804570D01*
X154897422Y-114904399D01*
X154897420Y-114904400D01*
X154703926Y-115039886D01*
X154703920Y-115039891D01*
X154536891Y-115206920D01*
X154536890Y-115206922D01*
X154406880Y-115392595D01*
X154352303Y-115436219D01*
X154282804Y-115443412D01*
X154220450Y-115411890D01*
X154203730Y-115392594D01*
X154073494Y-115206597D01*
X153906402Y-115039506D01*
X153906395Y-115039501D01*
X153712834Y-114903967D01*
X153712830Y-114903965D01*
X153664075Y-114881230D01*
X153498663Y-114804097D01*
X153498659Y-114804096D01*
X153498655Y-114804094D01*
X153270413Y-114742938D01*
X153270403Y-114742936D01*
X153035001Y-114722341D01*
X153034999Y-114722341D01*
X152799596Y-114742936D01*
X152799586Y-114742938D01*
X152578676Y-114802130D01*
X152508826Y-114800467D01*
X152458902Y-114770036D01*
X150675997Y-112987131D01*
X150642512Y-112925808D01*
X150647496Y-112856116D01*
X150689368Y-112800183D01*
X150722724Y-112782408D01*
X150734255Y-112778372D01*
X150844522Y-112739789D01*
X150997262Y-112643816D01*
X151124816Y-112516262D01*
X151220789Y-112363522D01*
X151280368Y-112193255D01*
X151300565Y-112014000D01*
X151280368Y-111834745D01*
X151220789Y-111664478D01*
X151124816Y-111511738D01*
X150997262Y-111384184D01*
X150986117Y-111377181D01*
X150844523Y-111288211D01*
X150674254Y-111228631D01*
X150674249Y-111228630D01*
X150495004Y-111208435D01*
X150494996Y-111208435D01*
X150315750Y-111228630D01*
X150315745Y-111228631D01*
X150145476Y-111288211D01*
X149992736Y-111384185D01*
X149989903Y-111386445D01*
X149987724Y-111387334D01*
X149986842Y-111387889D01*
X149986744Y-111387734D01*
X149925217Y-111412855D01*
X149912588Y-111413500D01*
X149779097Y-111413500D01*
X149712058Y-111393815D01*
X149691416Y-111377181D01*
X148672050Y-110357815D01*
X147648321Y-109334086D01*
X147642981Y-109327996D01*
X147621283Y-109299719D01*
X147495842Y-109203465D01*
X147349763Y-109142957D01*
X147349761Y-109142956D01*
X147232362Y-109127501D01*
X147193001Y-109122319D01*
X147157671Y-109126970D01*
X147149573Y-109127501D01*
X146251411Y-109127501D01*
X146184372Y-109107816D01*
X146174096Y-109100446D01*
X146171262Y-109098186D01*
X146171261Y-109098185D01*
X146081275Y-109041643D01*
X146018522Y-109002212D01*
X145897888Y-108960000D01*
X159511529Y-108960000D01*
X159574685Y-109130527D01*
X159574687Y-109130531D01*
X159676892Y-109294503D01*
X159810002Y-109434534D01*
X159810003Y-109434535D01*
X159968586Y-109544913D01*
X160146137Y-109621106D01*
X160335394Y-109660000D01*
X160532000Y-109660000D01*
X160532000Y-108960000D01*
X161032000Y-108960000D01*
X161032000Y-109660000D01*
X161180176Y-109660000D01*
X161324221Y-109645352D01*
X161508561Y-109587515D01*
X161508571Y-109587510D01*
X161677498Y-109493748D01*
X161677505Y-109493743D01*
X161824105Y-109367892D01*
X161942368Y-109215109D01*
X161942370Y-109215105D01*
X162027457Y-109041643D01*
X162048596Y-108960000D01*
X161156624Y-108960000D01*
X161229545Y-108945495D01*
X161312240Y-108890240D01*
X161367495Y-108807545D01*
X161386898Y-108710000D01*
X161367495Y-108612455D01*
X161312240Y-108529760D01*
X161229545Y-108474505D01*
X161156624Y-108460000D01*
X162052471Y-108460000D01*
X161989314Y-108289472D01*
X161989312Y-108289468D01*
X161887107Y-108125496D01*
X161753997Y-107985465D01*
X161753996Y-107985464D01*
X161595413Y-107875086D01*
X161417862Y-107798893D01*
X161228606Y-107760000D01*
X161032000Y-107760000D01*
X161032000Y-108460000D01*
X160532000Y-108460000D01*
X160532000Y-107760000D01*
X160383824Y-107760000D01*
X160239778Y-107774647D01*
X160055438Y-107832484D01*
X160055428Y-107832489D01*
X159886501Y-107926251D01*
X159886494Y-107926256D01*
X159739894Y-108052107D01*
X159621631Y-108204890D01*
X159621629Y-108204894D01*
X159536542Y-108378356D01*
X159515404Y-108460000D01*
X160407376Y-108460000D01*
X160334455Y-108474505D01*
X160251760Y-108529760D01*
X160196505Y-108612455D01*
X160177102Y-108710000D01*
X160196505Y-108807545D01*
X160251760Y-108890240D01*
X160334455Y-108945495D01*
X160407376Y-108960000D01*
X159511529Y-108960000D01*
X145897888Y-108960000D01*
X145848253Y-108942632D01*
X145848248Y-108942631D01*
X145669003Y-108922436D01*
X145668995Y-108922436D01*
X145489749Y-108942631D01*
X145489744Y-108942632D01*
X145319475Y-109002212D01*
X145166736Y-109098185D01*
X145039183Y-109225738D01*
X144943210Y-109378477D01*
X144883630Y-109548746D01*
X144883629Y-109548751D01*
X144863434Y-109727997D01*
X144863434Y-109728004D01*
X144883629Y-109907250D01*
X144883630Y-109907255D01*
X144943210Y-110077524D01*
X145039182Y-110230263D01*
X145039183Y-110230263D01*
X145166737Y-110357817D01*
X145319477Y-110453790D01*
X145489744Y-110513369D01*
X145489749Y-110513370D01*
X145668995Y-110533566D01*
X145668999Y-110533566D01*
X145669003Y-110533566D01*
X145848248Y-110513370D01*
X145848251Y-110513369D01*
X145848254Y-110513369D01*
X146018521Y-110453790D01*
X146171261Y-110357817D01*
X146171266Y-110357811D01*
X146174096Y-110355556D01*
X146176274Y-110354666D01*
X146177157Y-110354112D01*
X146177254Y-110354266D01*
X146238782Y-110329146D01*
X146251411Y-110328501D01*
X146892904Y-110328501D01*
X146959943Y-110348186D01*
X146980585Y-110364820D01*
X148071584Y-111455819D01*
X148105069Y-111517142D01*
X148100085Y-111586834D01*
X148058213Y-111642767D01*
X147992749Y-111667184D01*
X147983903Y-111667500D01*
X140381097Y-111667500D01*
X140314058Y-111647815D01*
X140293416Y-111631181D01*
X136231238Y-107569003D01*
X146895435Y-107569003D01*
X146915630Y-107748249D01*
X146915631Y-107748254D01*
X146975211Y-107918523D01*
X147017273Y-107985464D01*
X147071184Y-108071262D01*
X147198738Y-108198816D01*
X147289080Y-108255582D01*
X147343009Y-108289468D01*
X147351478Y-108294789D01*
X147521744Y-108354368D01*
X147521745Y-108354368D01*
X147521750Y-108354369D01*
X147700996Y-108374565D01*
X147701000Y-108374565D01*
X147701004Y-108374565D01*
X147880249Y-108354369D01*
X147880252Y-108354368D01*
X147880255Y-108354368D01*
X148050522Y-108294789D01*
X148203262Y-108198816D01*
X148330816Y-108071262D01*
X148426789Y-107918522D01*
X148486368Y-107748255D01*
X148506565Y-107569000D01*
X148486368Y-107389745D01*
X148426789Y-107219478D01*
X148426787Y-107219475D01*
X148426787Y-107219474D01*
X148416876Y-107203701D01*
X148397874Y-107136465D01*
X148418240Y-107069629D01*
X148434182Y-107050051D01*
X149624535Y-105859698D01*
X149685856Y-105826215D01*
X149698311Y-105824163D01*
X149785255Y-105814368D01*
X149955522Y-105754789D01*
X150108262Y-105658816D01*
X150235816Y-105531262D01*
X150331789Y-105378522D01*
X150391368Y-105208255D01*
X150411565Y-105029000D01*
X150408419Y-105001082D01*
X150391369Y-104849750D01*
X150391368Y-104849745D01*
X150331788Y-104679476D01*
X150235815Y-104526737D01*
X150108262Y-104399184D01*
X149955523Y-104303211D01*
X149785254Y-104243631D01*
X149785249Y-104243630D01*
X149606004Y-104223435D01*
X149605996Y-104223435D01*
X149426750Y-104243630D01*
X149426745Y-104243631D01*
X149256476Y-104303211D01*
X149103737Y-104399184D01*
X148976184Y-104526737D01*
X148880210Y-104679478D01*
X148820630Y-104849750D01*
X148810837Y-104936668D01*
X148783770Y-105001082D01*
X148775298Y-105010465D01*
X147307096Y-106478668D01*
X147300993Y-106484020D01*
X147272719Y-106505716D01*
X147248550Y-106537215D01*
X147176461Y-106631162D01*
X147176461Y-106631163D01*
X147115957Y-106777234D01*
X147115955Y-106777239D01*
X147095318Y-106933998D01*
X147095318Y-106934000D01*
X147099969Y-106969326D01*
X147100500Y-106977427D01*
X147100500Y-106986587D01*
X147080815Y-107053626D01*
X147073450Y-107063896D01*
X147071186Y-107066734D01*
X146975211Y-107219476D01*
X146915631Y-107389745D01*
X146915630Y-107389750D01*
X146895435Y-107568996D01*
X146895435Y-107569003D01*
X136231238Y-107569003D01*
X135394843Y-106732608D01*
X135361358Y-106671285D01*
X135358524Y-106644927D01*
X135358524Y-103900536D01*
X135378209Y-103833497D01*
X135390374Y-103817564D01*
X135421301Y-103783216D01*
X135490557Y-103706300D01*
X135585203Y-103542368D01*
X135643698Y-103362340D01*
X135663484Y-103174084D01*
X135643698Y-102985828D01*
X135585203Y-102805800D01*
X135490557Y-102641868D01*
X135363895Y-102501196D01*
X135363894Y-102501195D01*
X135210758Y-102389935D01*
X135210753Y-102389932D01*
X135143526Y-102360000D01*
X159511529Y-102360000D01*
X159574685Y-102530527D01*
X159574687Y-102530531D01*
X159676892Y-102694503D01*
X159810002Y-102834534D01*
X159810003Y-102834535D01*
X159968586Y-102944913D01*
X160146137Y-103021106D01*
X160335394Y-103060000D01*
X160532000Y-103060000D01*
X160532000Y-102360000D01*
X161032000Y-102360000D01*
X161032000Y-103060000D01*
X161180176Y-103060000D01*
X161324221Y-103045352D01*
X161508561Y-102987515D01*
X161508571Y-102987510D01*
X161677498Y-102893748D01*
X161677505Y-102893743D01*
X161824105Y-102767892D01*
X161942368Y-102615109D01*
X161942370Y-102615105D01*
X162027457Y-102441643D01*
X162048596Y-102360000D01*
X161156624Y-102360000D01*
X161229545Y-102345495D01*
X161312240Y-102290240D01*
X161367495Y-102207545D01*
X161386898Y-102110000D01*
X161367495Y-102012455D01*
X161312240Y-101929760D01*
X161229545Y-101874505D01*
X161156624Y-101860000D01*
X162052471Y-101860000D01*
X161989314Y-101689472D01*
X161989312Y-101689468D01*
X161887107Y-101525496D01*
X161753997Y-101385465D01*
X161753996Y-101385464D01*
X161595413Y-101275086D01*
X161417862Y-101198893D01*
X161228606Y-101160000D01*
X161032000Y-101160000D01*
X161032000Y-101860000D01*
X160532000Y-101860000D01*
X160532000Y-101160000D01*
X160383824Y-101160000D01*
X160239778Y-101174647D01*
X160055438Y-101232484D01*
X160055428Y-101232489D01*
X159886501Y-101326251D01*
X159886494Y-101326256D01*
X159739894Y-101452107D01*
X159621631Y-101604890D01*
X159621629Y-101604894D01*
X159536542Y-101778356D01*
X159515404Y-101860000D01*
X160407376Y-101860000D01*
X160334455Y-101874505D01*
X160251760Y-101929760D01*
X160196505Y-102012455D01*
X160177102Y-102110000D01*
X160196505Y-102207545D01*
X160251760Y-102290240D01*
X160334455Y-102345495D01*
X160407376Y-102360000D01*
X159511529Y-102360000D01*
X135143526Y-102360000D01*
X135037831Y-102312941D01*
X135037826Y-102312939D01*
X134892024Y-102281949D01*
X134852670Y-102273584D01*
X134663378Y-102273584D01*
X134630921Y-102280482D01*
X134478221Y-102312939D01*
X134478216Y-102312941D01*
X134305295Y-102389932D01*
X134251379Y-102429103D01*
X134185572Y-102452581D01*
X134128060Y-102442062D01*
X134010807Y-102389857D01*
X134010802Y-102389855D01*
X133865000Y-102358865D01*
X133825646Y-102350500D01*
X133636354Y-102350500D01*
X133603897Y-102357398D01*
X133451197Y-102389855D01*
X133451192Y-102389857D01*
X133273435Y-102469001D01*
X133204185Y-102478286D01*
X133172563Y-102469001D01*
X133167727Y-102466848D01*
X133082952Y-102429103D01*
X132994806Y-102389857D01*
X132994802Y-102389855D01*
X132849000Y-102358865D01*
X132809646Y-102350500D01*
X132620354Y-102350500D01*
X132587897Y-102357398D01*
X132435197Y-102389855D01*
X132435192Y-102389857D01*
X132262270Y-102466848D01*
X132262265Y-102466851D01*
X132109129Y-102578111D01*
X131982466Y-102718785D01*
X131887821Y-102882715D01*
X131887818Y-102882722D01*
X131829327Y-103062740D01*
X131829326Y-103062744D01*
X131809540Y-103251000D01*
X130594984Y-103251000D01*
X130594984Y-96902439D01*
X130595050Y-96899575D01*
X130611662Y-96540277D01*
X130612188Y-96534587D01*
X130661684Y-96179761D01*
X130662733Y-96174150D01*
X130744757Y-95825405D01*
X130746320Y-95819916D01*
X130860177Y-95480212D01*
X130862224Y-95474929D01*
X131006946Y-95147164D01*
X131009484Y-95142069D01*
X131093071Y-94992000D01*
X144978364Y-94992000D01*
X145035567Y-95205486D01*
X145035570Y-95205492D01*
X145135399Y-95419578D01*
X145270894Y-95613082D01*
X145437917Y-95780105D01*
X145631421Y-95915600D01*
X145845507Y-96015429D01*
X145845516Y-96015433D01*
X146059000Y-96072634D01*
X146059000Y-95177501D01*
X146166685Y-95226680D01*
X146273237Y-95242000D01*
X146344763Y-95242000D01*
X146451315Y-95226680D01*
X146559000Y-95177501D01*
X146559000Y-96072633D01*
X146772483Y-96015433D01*
X146772492Y-96015429D01*
X146986578Y-95915600D01*
X147180078Y-95780108D01*
X147302133Y-95658053D01*
X147363456Y-95624568D01*
X147433148Y-95629552D01*
X147489082Y-95671423D01*
X147505997Y-95702401D01*
X147555202Y-95834328D01*
X147555206Y-95834335D01*
X147641452Y-95949544D01*
X147641455Y-95949547D01*
X147756664Y-96035793D01*
X147756671Y-96035797D01*
X147891517Y-96086091D01*
X147891516Y-96086091D01*
X147898444Y-96086835D01*
X147951127Y-96092500D01*
X149746872Y-96092499D01*
X149806483Y-96086091D01*
X149941331Y-96035796D01*
X150056546Y-95949546D01*
X150142796Y-95834331D01*
X150193091Y-95699483D01*
X150199500Y-95639873D01*
X150199499Y-93844128D01*
X150193091Y-93784517D01*
X150192002Y-93781598D01*
X150142797Y-93649671D01*
X150142793Y-93649664D01*
X150056547Y-93534455D01*
X150056544Y-93534452D01*
X149941335Y-93448206D01*
X149941328Y-93448202D01*
X149806482Y-93397908D01*
X149806483Y-93397908D01*
X149746883Y-93391501D01*
X149746881Y-93391500D01*
X149746873Y-93391500D01*
X149746864Y-93391500D01*
X147951129Y-93391500D01*
X147951123Y-93391501D01*
X147891516Y-93397908D01*
X147756671Y-93448202D01*
X147756664Y-93448206D01*
X147641455Y-93534452D01*
X147641452Y-93534455D01*
X147555206Y-93649664D01*
X147555202Y-93649671D01*
X147505997Y-93781598D01*
X147464126Y-93837532D01*
X147398661Y-93861949D01*
X147330388Y-93847097D01*
X147302134Y-93825946D01*
X147180082Y-93703894D01*
X146986578Y-93568399D01*
X146772492Y-93468570D01*
X146772486Y-93468567D01*
X146559000Y-93411364D01*
X146559000Y-94306498D01*
X146451315Y-94257320D01*
X146344763Y-94242000D01*
X146273237Y-94242000D01*
X146166685Y-94257320D01*
X146059000Y-94306498D01*
X146059000Y-93411364D01*
X146058999Y-93411364D01*
X145845513Y-93468567D01*
X145845507Y-93468570D01*
X145631422Y-93568399D01*
X145631420Y-93568400D01*
X145437926Y-93703886D01*
X145437920Y-93703891D01*
X145270891Y-93870920D01*
X145270886Y-93870926D01*
X145135400Y-94064420D01*
X145135399Y-94064422D01*
X145035570Y-94278507D01*
X145035567Y-94278513D01*
X144978364Y-94491999D01*
X144978364Y-94492000D01*
X145875314Y-94492000D01*
X145849507Y-94532156D01*
X145809000Y-94670111D01*
X145809000Y-94813889D01*
X145849507Y-94951844D01*
X145875314Y-94992000D01*
X144978364Y-94992000D01*
X131093071Y-94992000D01*
X131183811Y-94829090D01*
X131186822Y-94824228D01*
X131193904Y-94813889D01*
X131389282Y-94528672D01*
X131392722Y-94524117D01*
X131621594Y-94248495D01*
X131625445Y-94244272D01*
X131878780Y-93990935D01*
X131882981Y-93987107D01*
X132158611Y-93758225D01*
X132163153Y-93754796D01*
X132458740Y-93552312D01*
X132463563Y-93549326D01*
X132776560Y-93374987D01*
X132781660Y-93372448D01*
X133109423Y-93227725D01*
X133114711Y-93225678D01*
X133454406Y-93111823D01*
X133459898Y-93110260D01*
X133808644Y-93028234D01*
X133814243Y-93027188D01*
X134169069Y-92977691D01*
X134174765Y-92977164D01*
X134533738Y-92960566D01*
X134536602Y-92960500D01*
X158706074Y-92960500D01*
X158708938Y-92960566D01*
G37*
G04 #@! TD.AperFunction*
G04 #@! TD*
M02*
