G04 #@! TF.GenerationSoftware,KiCad,Pcbnew,7.0.0-da2b9df05c~165~ubuntu22.04.1*
G04 #@! TF.CreationDate,2023-07-19T14:48:20+00:00*
G04 #@! TF.ProjectId,sensus-breakout,73656e73-7573-42d6-9272-65616b6f7574,rev?*
G04 #@! TF.SameCoordinates,Original*
G04 #@! TF.FileFunction,Copper,L1,Top*
G04 #@! TF.FilePolarity,Positive*
%FSLAX46Y46*%
G04 Gerber Fmt 4.6, Leading zero omitted, Abs format (unit mm)*
G04 Created by KiCad (PCBNEW 7.0.0-da2b9df05c~165~ubuntu22.04.1) date 2023-07-19 14:48:20*
%MOMM*%
%LPD*%
G01*
G04 APERTURE LIST*
G04 Aperture macros list*
%AMRoundRect*
0 Rectangle with rounded corners*
0 $1 Rounding radius*
0 $2 $3 $4 $5 $6 $7 $8 $9 X,Y pos of 4 corners*
0 Add a 4 corners polygon primitive as box body*
4,1,4,$2,$3,$4,$5,$6,$7,$8,$9,$2,$3,0*
0 Add four circle primitives for the rounded corners*
1,1,$1+$1,$2,$3*
1,1,$1+$1,$4,$5*
1,1,$1+$1,$6,$7*
1,1,$1+$1,$8,$9*
0 Add four rect primitives between the rounded corners*
20,1,$1+$1,$2,$3,$4,$5,0*
20,1,$1+$1,$4,$5,$6,$7,0*
20,1,$1+$1,$6,$7,$8,$9,0*
20,1,$1+$1,$8,$9,$2,$3,0*%
G04 Aperture macros list end*
G04 #@! TA.AperFunction,SMDPad,CuDef*
%ADD10RoundRect,0.140000X-0.140000X-0.170000X0.140000X-0.170000X0.140000X0.170000X-0.140000X0.170000X0*%
G04 #@! TD*
G04 #@! TA.AperFunction,SMDPad,CuDef*
%ADD11RoundRect,0.140000X-0.170000X0.140000X-0.170000X-0.140000X0.170000X-0.140000X0.170000X0.140000X0*%
G04 #@! TD*
G04 #@! TA.AperFunction,SMDPad,CuDef*
%ADD12R,0.740000X2.400000*%
G04 #@! TD*
G04 #@! TA.AperFunction,ComponentPad*
%ADD13R,1.700000X1.700000*%
G04 #@! TD*
G04 #@! TA.AperFunction,ComponentPad*
%ADD14O,1.700000X1.700000*%
G04 #@! TD*
G04 #@! TA.AperFunction,SMDPad,CuDef*
%ADD15RoundRect,0.150000X-0.587500X-0.150000X0.587500X-0.150000X0.587500X0.150000X-0.587500X0.150000X0*%
G04 #@! TD*
G04 #@! TA.AperFunction,SMDPad,CuDef*
%ADD16RoundRect,0.100000X0.100000X0.575000X-0.100000X0.575000X-0.100000X-0.575000X0.100000X-0.575000X0*%
G04 #@! TD*
G04 #@! TA.AperFunction,ComponentPad*
%ADD17O,0.900000X1.600000*%
G04 #@! TD*
G04 #@! TA.AperFunction,SMDPad,CuDef*
%ADD18RoundRect,0.250000X0.550000X0.450000X-0.550000X0.450000X-0.550000X-0.450000X0.550000X-0.450000X0*%
G04 #@! TD*
G04 #@! TA.AperFunction,SMDPad,CuDef*
%ADD19RoundRect,0.250000X0.700000X0.700000X-0.700000X0.700000X-0.700000X-0.700000X0.700000X-0.700000X0*%
G04 #@! TD*
G04 #@! TA.AperFunction,SMDPad,CuDef*
%ADD20R,1.300000X0.300000*%
G04 #@! TD*
G04 #@! TA.AperFunction,SMDPad,CuDef*
%ADD21R,2.200000X1.800000*%
G04 #@! TD*
G04 #@! TA.AperFunction,ViaPad*
%ADD22C,0.800000*%
G04 #@! TD*
G04 #@! TA.AperFunction,Conductor*
%ADD23C,0.250000*%
G04 #@! TD*
G04 #@! TA.AperFunction,Conductor*
%ADD24C,0.300000*%
G04 #@! TD*
G04 APERTURE END LIST*
D10*
G04 #@! TO.P,C1,1*
G04 #@! TO.N,GND*
X101588000Y-58539000D03*
G04 #@! TO.P,C1,2*
G04 #@! TO.N,Net-(J5-VBUS)*
X102548000Y-58539000D03*
G04 #@! TD*
D11*
G04 #@! TO.P,C2,1*
G04 #@! TO.N,GND*
X98512000Y-61107000D03*
G04 #@! TO.P,C2,2*
G04 #@! TO.N,+3.3V*
X98512000Y-62067000D03*
G04 #@! TD*
D12*
G04 #@! TO.P,J3,1,Pin_1*
G04 #@! TO.N,+3.3V*
X96265999Y-83147999D03*
G04 #@! TO.P,J3,2,Pin_2*
G04 #@! TO.N,/SWDIO*
X96265999Y-79247999D03*
G04 #@! TO.P,J3,3,Pin_3*
G04 #@! TO.N,GND*
X97535999Y-83147999D03*
G04 #@! TO.P,J3,4,Pin_4*
G04 #@! TO.N,/SWCLK*
X97535999Y-79247999D03*
G04 #@! TO.P,J3,5,Pin_5*
G04 #@! TO.N,GND*
X98805999Y-83147999D03*
G04 #@! TO.P,J3,6,Pin_6*
G04 #@! TO.N,unconnected-(J3-Pin_6-Pad6)*
X98805999Y-79247999D03*
G04 #@! TO.P,J3,7,Pin_7*
G04 #@! TO.N,unconnected-(J3-Pin_7-Pad7)*
X100075999Y-83147999D03*
G04 #@! TO.P,J3,8,Pin_8*
G04 #@! TO.N,unconnected-(J3-Pin_8-Pad8)*
X100075999Y-79247999D03*
G04 #@! TO.P,J3,9,Pin_9*
G04 #@! TO.N,unconnected-(J3-Pin_9-Pad9)*
X101345999Y-83147999D03*
G04 #@! TO.P,J3,10,Pin_10*
G04 #@! TO.N,unconnected-(J3-Pin_10-Pad10)*
X101345999Y-79247999D03*
G04 #@! TD*
D13*
G04 #@! TO.P,J2,1,Pin_1*
G04 #@! TO.N,+3.3V*
X105790999Y-59943999D03*
D14*
G04 #@! TO.P,J2,2,Pin_2*
G04 #@! TO.N,Net-(J1-Pin_2)*
X105790999Y-62483999D03*
G04 #@! TO.P,J2,3,Pin_3*
G04 #@! TO.N,Net-(J1-Pin_3)*
X105790999Y-65023999D03*
G04 #@! TO.P,J2,4,Pin_4*
G04 #@! TO.N,Net-(J1-Pin_4)*
X105790999Y-67563999D03*
G04 #@! TO.P,J2,5,Pin_5*
G04 #@! TO.N,/SWDIO*
X105790999Y-70103999D03*
G04 #@! TO.P,J2,6,Pin_6*
G04 #@! TO.N,/SWCLK*
X105790999Y-72643999D03*
G04 #@! TO.P,J2,7,Pin_7*
G04 #@! TO.N,Net-(J1-Pin_7)*
X105790999Y-75183999D03*
G04 #@! TO.P,J2,8,Pin_8*
G04 #@! TO.N,Net-(J1-Pin_8)*
X105790999Y-77723999D03*
G04 #@! TO.P,J2,9,Pin_9*
G04 #@! TO.N,Net-(J1-Pin_9)*
X105790999Y-80263999D03*
G04 #@! TO.P,J2,10,Pin_10*
G04 #@! TO.N,GND*
X105790999Y-82803999D03*
G04 #@! TD*
D15*
G04 #@! TO.P,U1,1,GND*
G04 #@! TO.N,GND*
X100193000Y-59875000D03*
G04 #@! TO.P,U1,2,VO*
G04 #@! TO.N,+3.3V*
X100193000Y-61775000D03*
G04 #@! TO.P,U1,3,VI*
G04 #@! TO.N,Net-(J5-VBUS)*
X102068000Y-60825000D03*
G04 #@! TD*
D16*
G04 #@! TO.P,J5,1,VBUS*
G04 #@! TO.N,Net-(J5-VBUS)*
X102676000Y-56896000D03*
G04 #@! TO.P,J5,2,D-*
G04 #@! TO.N,unconnected-(J5-D--Pad2)*
X102026000Y-56896000D03*
G04 #@! TO.P,J5,3,D+*
G04 #@! TO.N,unconnected-(J5-D+-Pad3)*
X101376000Y-56896000D03*
G04 #@! TO.P,J5,4,ID*
G04 #@! TO.N,unconnected-(J5-ID-Pad4)*
X100726000Y-56896000D03*
G04 #@! TO.P,J5,5,GND*
G04 #@! TO.N,GND*
X100076000Y-56896000D03*
D17*
G04 #@! TO.P,J5,6,Shield*
X104675999Y-54220999D03*
D18*
X104576000Y-56671000D03*
D19*
X102576000Y-54221000D03*
X100176000Y-54221000D03*
D18*
X98176000Y-56671000D03*
D17*
X98075999Y-54220999D03*
G04 #@! TD*
D20*
G04 #@! TO.P,J1,1,Pin_1*
G04 #@! TO.N,+3.3V*
X100531999Y-68148998D03*
G04 #@! TO.P,J1,2,Pin_2*
G04 #@! TO.N,Net-(J1-Pin_2)*
X100531999Y-68648998D03*
G04 #@! TO.P,J1,3,Pin_3*
G04 #@! TO.N,Net-(J1-Pin_3)*
X100531999Y-69148998D03*
G04 #@! TO.P,J1,4,Pin_4*
G04 #@! TO.N,Net-(J1-Pin_4)*
X100531999Y-69648998D03*
G04 #@! TO.P,J1,5,Pin_5*
G04 #@! TO.N,/SWDIO*
X100531999Y-70148998D03*
G04 #@! TO.P,J1,6,Pin_6*
G04 #@! TO.N,/SWCLK*
X100531999Y-70648998D03*
G04 #@! TO.P,J1,7,Pin_7*
G04 #@! TO.N,Net-(J1-Pin_7)*
X100531999Y-71148998D03*
G04 #@! TO.P,J1,8,Pin_8*
G04 #@! TO.N,Net-(J1-Pin_8)*
X100531999Y-71648998D03*
G04 #@! TO.P,J1,9,Pin_9*
G04 #@! TO.N,Net-(J1-Pin_9)*
X100531999Y-72148998D03*
G04 #@! TO.P,J1,10,Pin_10*
G04 #@! TO.N,GND*
X100531999Y-72648998D03*
D21*
G04 #@! TO.P,J1,MP*
G04 #@! TO.N,N/C*
X97281999Y-66248998D03*
X97281999Y-74548998D03*
G04 #@! TD*
D22*
G04 #@! TO.N,GND*
X98552000Y-59944000D03*
X96266000Y-52832000D03*
X107696000Y-67564000D03*
X107696000Y-70104000D03*
X105791000Y-84582000D03*
X95250000Y-67564000D03*
X107696000Y-65024000D03*
X103124000Y-84582000D03*
X98806000Y-81280000D03*
X100076000Y-81280000D03*
X107696000Y-57404000D03*
X100584000Y-63500000D03*
X107696000Y-77724000D03*
X107696000Y-82804000D03*
X103124000Y-82804000D03*
X97536000Y-81280000D03*
X103124000Y-81280000D03*
X102108000Y-65024000D03*
X95250000Y-57404000D03*
X97028000Y-59944000D03*
X107696000Y-75184000D03*
X102616000Y-52578000D03*
X101346000Y-81280000D03*
X107696000Y-72644000D03*
X107696000Y-59944000D03*
X107696000Y-80264000D03*
X95250000Y-55118000D03*
X106680000Y-52832000D03*
X95250000Y-59944000D03*
X100584000Y-65024000D03*
X107696000Y-55118000D03*
X102108000Y-63500000D03*
X95250000Y-65024000D03*
X95250000Y-69850000D03*
X100203000Y-52578000D03*
X95250000Y-62484000D03*
X107696000Y-62484000D03*
G04 #@! TD*
D23*
G04 #@! TO.N,Net-(J1-Pin_2)*
X101482000Y-68648999D02*
X104616000Y-65514999D01*
X100532000Y-68648999D02*
X101482000Y-68648999D01*
X104616000Y-63659000D02*
X105791000Y-62484000D01*
X104616000Y-65514999D02*
X104616000Y-63659000D01*
G04 #@! TO.N,Net-(J1-Pin_3)*
X100532000Y-69148999D02*
X101666001Y-69148999D01*
X101666001Y-69148999D02*
X105791000Y-65024000D01*
G04 #@! TO.N,Net-(J1-Pin_4)*
X102055001Y-69648999D02*
X104140000Y-67564000D01*
X100532000Y-69648999D02*
X102055001Y-69648999D01*
X104140000Y-67564000D02*
X105791000Y-67564000D01*
G04 #@! TO.N,Net-(J1-Pin_7)*
X100532000Y-71148999D02*
X101755999Y-71148999D01*
X101755999Y-71148999D02*
X105791000Y-75184000D01*
G04 #@! TO.N,Net-(J1-Pin_8)*
X104616000Y-76549000D02*
X105791000Y-77724000D01*
X100532000Y-71648999D02*
X101618396Y-71648999D01*
X104616000Y-74646603D02*
X104616000Y-76549000D01*
X101618396Y-71648999D02*
X104616000Y-74646603D01*
G04 #@! TO.N,Net-(J1-Pin_9)*
X101482000Y-72148999D02*
X103886000Y-74552999D01*
X103886000Y-78359000D02*
X105791000Y-80264000D01*
X100532000Y-72148999D02*
X101482000Y-72148999D01*
X103886000Y-74552999D02*
X103886000Y-78359000D01*
G04 #@! TO.N,GND*
X100532000Y-72648999D02*
X100532000Y-73100000D01*
X103251000Y-80264000D02*
X103251000Y-74803000D01*
X101096999Y-72648999D02*
X100532000Y-72648999D01*
D24*
X100076000Y-56896000D02*
X100076000Y-58166000D01*
D23*
X100584000Y-73152000D02*
X100532000Y-73100000D01*
X103251000Y-74803000D02*
X101096999Y-72648999D01*
X105791000Y-82804000D02*
X103251000Y-80264000D01*
G04 #@! TO.N,Net-(J5-VBUS)*
X102548000Y-60345000D02*
X102068000Y-60825000D01*
D24*
X102676000Y-58411000D02*
X102548000Y-58539000D01*
D23*
X102548000Y-58539000D02*
X102548000Y-60345000D01*
D24*
X102676000Y-56896000D02*
X102676000Y-58411000D01*
D23*
G04 #@! TO.N,+3.3V*
X100193000Y-61775000D02*
X98804000Y-61775000D01*
D24*
X99237001Y-68148999D02*
X100532000Y-68148999D01*
D23*
X101345604Y-68148999D02*
X103886000Y-65608603D01*
X100193000Y-61775000D02*
X103812000Y-61775000D01*
X103812000Y-61775000D02*
X103886000Y-61849000D01*
X103886000Y-61849000D02*
X105791000Y-59944000D01*
D24*
X95250000Y-72136000D02*
X99237001Y-68148999D01*
D23*
X103886000Y-65608603D02*
X103886000Y-61849000D01*
X98804000Y-61775000D02*
X98512000Y-62067000D01*
D24*
X95250000Y-82132000D02*
X95250000Y-72136000D01*
D23*
X100532000Y-68148999D02*
X101345604Y-68148999D01*
D24*
X96266000Y-83148000D02*
X95250000Y-82132000D01*
D23*
G04 #@! TO.N,/SWDIO*
X95857000Y-73323999D02*
X99032000Y-70148999D01*
X105746001Y-70148999D02*
X105791000Y-70104000D01*
X99032000Y-70148999D02*
X100532000Y-70148999D01*
X100532000Y-70148999D02*
X105746001Y-70148999D01*
X95857000Y-78839000D02*
X95857000Y-73323999D01*
X96266000Y-79248000D02*
X95857000Y-78839000D01*
G04 #@! TO.N,/SWCLK*
X97536000Y-79248000D02*
X97536000Y-78418000D01*
X97536000Y-78418000D02*
X99060000Y-76894000D01*
X99582000Y-70648999D02*
X100532000Y-70648999D01*
X99060000Y-71170999D02*
X99582000Y-70648999D01*
X99060000Y-76894000D02*
X99060000Y-71170999D01*
X100532000Y-70648999D02*
X102144999Y-70648999D01*
X104140000Y-72644000D02*
X105791000Y-72644000D01*
X102144999Y-70648999D02*
X104140000Y-72644000D01*
G04 #@! TD*
G04 #@! TA.AperFunction,Conductor*
G04 #@! TO.N,GND*
G36*
X106428019Y-52070633D02*
G01*
X106457188Y-52072544D01*
X106509780Y-52075991D01*
X106695833Y-52089298D01*
X106703475Y-52090328D01*
X106821233Y-52113752D01*
X106968306Y-52145746D01*
X106975052Y-52147618D01*
X107095739Y-52188585D01*
X107197438Y-52226517D01*
X107230528Y-52238860D01*
X107236286Y-52241346D01*
X107353386Y-52299093D01*
X107477587Y-52366912D01*
X107482314Y-52369773D01*
X107540141Y-52408412D01*
X107590885Y-52442318D01*
X107593595Y-52444236D01*
X107593872Y-52444443D01*
X107704895Y-52527553D01*
X107708603Y-52530560D01*
X107807200Y-52617027D01*
X107810146Y-52619786D01*
X107908211Y-52717851D01*
X107910971Y-52720798D01*
X107997430Y-52819385D01*
X108000451Y-52823111D01*
X108083762Y-52934403D01*
X108085680Y-52937113D01*
X108158220Y-53045676D01*
X108161086Y-53050410D01*
X108228906Y-53174613D01*
X108286652Y-53291712D01*
X108289138Y-53297470D01*
X108339412Y-53432254D01*
X108380378Y-53552939D01*
X108382253Y-53559694D01*
X108414247Y-53706766D01*
X108437667Y-53824507D01*
X108438702Y-53832187D01*
X108452017Y-54018354D01*
X108457367Y-54099967D01*
X108457500Y-54104024D01*
X108457500Y-83143123D01*
X108457367Y-83147178D01*
X108452037Y-83228527D01*
X108438699Y-83415013D01*
X108437665Y-83422691D01*
X108414343Y-83539952D01*
X108382233Y-83687556D01*
X108380359Y-83694310D01*
X108339572Y-83814473D01*
X108289080Y-83949844D01*
X108286594Y-83955601D01*
X108229125Y-84072145D01*
X108195004Y-84134634D01*
X108160972Y-84196958D01*
X108158106Y-84201691D01*
X108085945Y-84309692D01*
X108084026Y-84312404D01*
X108000245Y-84424320D01*
X107997225Y-84428045D01*
X107911275Y-84526055D01*
X107908500Y-84529017D01*
X107809838Y-84627680D01*
X107806876Y-84630454D01*
X107708927Y-84716354D01*
X107705201Y-84719375D01*
X107593109Y-84803285D01*
X107590400Y-84805202D01*
X107482657Y-84877196D01*
X107477922Y-84880063D01*
X107352617Y-84948485D01*
X107236633Y-85005681D01*
X107230875Y-85008167D01*
X107094518Y-85059028D01*
X106975399Y-85099463D01*
X106968644Y-85101338D01*
X106819009Y-85133890D01*
X106703817Y-85156803D01*
X106696137Y-85157838D01*
X106502871Y-85171661D01*
X106428632Y-85176526D01*
X106424577Y-85176659D01*
X96434877Y-85176659D01*
X96430823Y-85176526D01*
X96349466Y-85171195D01*
X96162989Y-85157858D01*
X96155311Y-85156824D01*
X96038016Y-85133495D01*
X95890453Y-85101395D01*
X95883695Y-85099519D01*
X95855411Y-85089917D01*
X95798258Y-85049726D01*
X95771906Y-84985016D01*
X95784723Y-84916332D01*
X95832638Y-84865481D01*
X95895269Y-84848499D01*
X96683872Y-84848499D01*
X96743483Y-84842091D01*
X96858383Y-84799235D01*
X96928073Y-84794252D01*
X96945049Y-84799236D01*
X97058623Y-84841597D01*
X97058627Y-84841598D01*
X97118155Y-84847999D01*
X97118172Y-84848000D01*
X97286000Y-84848000D01*
X97286000Y-83398000D01*
X97786000Y-83398000D01*
X97786000Y-84848000D01*
X97953828Y-84848000D01*
X97953844Y-84847999D01*
X98013372Y-84841598D01*
X98013376Y-84841597D01*
X98127666Y-84798969D01*
X98197357Y-84793985D01*
X98214334Y-84798969D01*
X98328623Y-84841597D01*
X98328627Y-84841598D01*
X98388155Y-84847999D01*
X98388172Y-84848000D01*
X98556000Y-84848000D01*
X99056000Y-84848000D01*
X99223828Y-84848000D01*
X99223844Y-84847999D01*
X99283372Y-84841598D01*
X99283376Y-84841597D01*
X99396951Y-84799236D01*
X99466643Y-84794252D01*
X99483608Y-84799232D01*
X99598517Y-84842091D01*
X99658127Y-84848500D01*
X100493872Y-84848499D01*
X100553483Y-84842091D01*
X100667668Y-84799502D01*
X100737357Y-84794519D01*
X100754332Y-84799503D01*
X100868517Y-84842091D01*
X100868516Y-84842091D01*
X100875444Y-84842835D01*
X100928127Y-84848500D01*
X101763872Y-84848499D01*
X101823483Y-84842091D01*
X101958331Y-84791796D01*
X102073546Y-84705546D01*
X102159796Y-84590331D01*
X102210091Y-84455483D01*
X102216500Y-84395873D01*
X102216499Y-81900128D01*
X102210091Y-81840517D01*
X102182257Y-81765891D01*
X102159797Y-81705671D01*
X102159793Y-81705664D01*
X102073547Y-81590455D01*
X102073544Y-81590452D01*
X101958335Y-81504206D01*
X101958328Y-81504202D01*
X101823482Y-81453908D01*
X101823483Y-81453908D01*
X101763883Y-81447501D01*
X101763881Y-81447500D01*
X101763873Y-81447500D01*
X101763864Y-81447500D01*
X100928129Y-81447500D01*
X100928123Y-81447501D01*
X100868515Y-81453909D01*
X100754331Y-81496496D01*
X100684639Y-81501480D01*
X100667666Y-81496496D01*
X100553482Y-81453908D01*
X100553483Y-81453908D01*
X100493883Y-81447501D01*
X100493881Y-81447500D01*
X100493873Y-81447500D01*
X100493864Y-81447500D01*
X99658129Y-81447500D01*
X99658123Y-81447501D01*
X99598516Y-81453908D01*
X99483618Y-81496763D01*
X99413926Y-81501747D01*
X99396952Y-81496763D01*
X99283379Y-81454403D01*
X99283372Y-81454401D01*
X99223844Y-81448000D01*
X99056000Y-81448000D01*
X99056000Y-84848000D01*
X98556000Y-84848000D01*
X98556000Y-83398000D01*
X97786000Y-83398000D01*
X97286000Y-83398000D01*
X97286000Y-81448000D01*
X97786000Y-81448000D01*
X97786000Y-82898000D01*
X98556000Y-82898000D01*
X98556000Y-81448000D01*
X98388155Y-81448000D01*
X98328627Y-81454401D01*
X98328616Y-81454403D01*
X98214331Y-81497029D01*
X98144640Y-81502013D01*
X98127666Y-81497029D01*
X98013379Y-81454403D01*
X98013372Y-81454401D01*
X97953844Y-81448000D01*
X97786000Y-81448000D01*
X97286000Y-81448000D01*
X97118155Y-81448000D01*
X97058627Y-81454401D01*
X97058620Y-81454403D01*
X96945047Y-81496763D01*
X96875355Y-81501747D01*
X96858381Y-81496763D01*
X96743482Y-81453908D01*
X96743483Y-81453908D01*
X96683883Y-81447501D01*
X96683881Y-81447500D01*
X96683873Y-81447500D01*
X96683865Y-81447500D01*
X96024500Y-81447500D01*
X95957461Y-81427815D01*
X95911706Y-81375011D01*
X95900500Y-81323500D01*
X95900500Y-81072499D01*
X95920185Y-81005460D01*
X95972989Y-80959705D01*
X96024500Y-80948499D01*
X96683871Y-80948499D01*
X96683872Y-80948499D01*
X96743483Y-80942091D01*
X96857667Y-80899502D01*
X96927358Y-80894519D01*
X96944333Y-80899503D01*
X97058517Y-80942091D01*
X97058516Y-80942091D01*
X97065444Y-80942835D01*
X97118127Y-80948500D01*
X97953872Y-80948499D01*
X98013483Y-80942091D01*
X98127668Y-80899502D01*
X98197357Y-80894519D01*
X98214332Y-80899503D01*
X98328517Y-80942091D01*
X98328516Y-80942091D01*
X98335444Y-80942835D01*
X98388127Y-80948500D01*
X99223872Y-80948499D01*
X99283483Y-80942091D01*
X99397667Y-80899502D01*
X99467358Y-80894519D01*
X99484333Y-80899503D01*
X99598517Y-80942091D01*
X99598516Y-80942091D01*
X99605444Y-80942835D01*
X99658127Y-80948500D01*
X100493872Y-80948499D01*
X100553483Y-80942091D01*
X100667667Y-80899502D01*
X100737358Y-80894519D01*
X100754333Y-80899503D01*
X100868517Y-80942091D01*
X100868516Y-80942091D01*
X100875444Y-80942835D01*
X100928127Y-80948500D01*
X101763872Y-80948499D01*
X101823483Y-80942091D01*
X101958331Y-80891796D01*
X102073546Y-80805546D01*
X102159796Y-80690331D01*
X102210091Y-80555483D01*
X102216500Y-80495873D01*
X102216499Y-78000128D01*
X102210091Y-77940517D01*
X102159796Y-77805669D01*
X102159795Y-77805668D01*
X102159793Y-77805664D01*
X102073547Y-77690455D01*
X102073544Y-77690452D01*
X101958335Y-77604206D01*
X101958328Y-77604202D01*
X101823482Y-77553908D01*
X101823483Y-77553908D01*
X101763883Y-77547501D01*
X101763881Y-77547500D01*
X101763873Y-77547500D01*
X101763864Y-77547500D01*
X100928129Y-77547500D01*
X100928123Y-77547501D01*
X100868516Y-77553908D01*
X100754333Y-77596496D01*
X100684641Y-77601480D01*
X100667667Y-77596496D01*
X100553482Y-77553908D01*
X100553483Y-77553908D01*
X100493883Y-77547501D01*
X100493881Y-77547500D01*
X100493873Y-77547500D01*
X100493864Y-77547500D01*
X99658129Y-77547500D01*
X99658120Y-77547501D01*
X99597382Y-77554030D01*
X99528623Y-77541623D01*
X99477487Y-77494011D01*
X99460209Y-77426311D01*
X99482276Y-77360017D01*
X99493736Y-77345858D01*
X99509226Y-77329364D01*
X99530120Y-77308471D01*
X99534379Y-77302978D01*
X99538152Y-77298561D01*
X99570062Y-77264582D01*
X99579713Y-77247024D01*
X99590396Y-77230761D01*
X99602673Y-77214936D01*
X99621185Y-77172153D01*
X99623738Y-77166941D01*
X99646197Y-77126092D01*
X99651180Y-77106680D01*
X99657481Y-77088280D01*
X99665437Y-77069896D01*
X99672729Y-77023852D01*
X99673906Y-77018171D01*
X99685500Y-76973019D01*
X99685500Y-76952982D01*
X99687027Y-76933582D01*
X99690160Y-76913804D01*
X99685775Y-76867415D01*
X99685500Y-76861577D01*
X99685500Y-73421061D01*
X99705185Y-73354022D01*
X99757989Y-73308267D01*
X99822759Y-73297772D01*
X99834163Y-73298998D01*
X99834172Y-73298999D01*
X100382000Y-73298999D01*
X100382000Y-72923498D01*
X100401685Y-72856459D01*
X100454489Y-72810704D01*
X100505997Y-72799498D01*
X100558001Y-72799498D01*
X100625039Y-72819183D01*
X100670794Y-72871987D01*
X100682000Y-72923498D01*
X100682000Y-73298999D01*
X101229828Y-73298999D01*
X101229844Y-73298998D01*
X101289372Y-73292597D01*
X101289379Y-73292595D01*
X101424085Y-73242353D01*
X101490578Y-73192576D01*
X101556042Y-73168158D01*
X101624316Y-73183009D01*
X101652572Y-73204161D01*
X103224181Y-74775770D01*
X103257666Y-74837093D01*
X103260500Y-74863451D01*
X103260499Y-78276255D01*
X103258776Y-78291872D01*
X103259061Y-78291899D01*
X103258326Y-78299665D01*
X103260500Y-78368814D01*
X103260500Y-78398343D01*
X103260501Y-78398360D01*
X103261368Y-78405231D01*
X103261826Y-78411050D01*
X103263290Y-78457624D01*
X103263291Y-78457627D01*
X103268880Y-78476867D01*
X103272824Y-78495911D01*
X103275336Y-78515791D01*
X103292490Y-78559119D01*
X103294382Y-78564647D01*
X103307381Y-78609388D01*
X103317580Y-78626634D01*
X103326138Y-78644103D01*
X103333514Y-78662732D01*
X103360898Y-78700423D01*
X103364106Y-78705307D01*
X103387827Y-78745416D01*
X103387833Y-78745424D01*
X103401990Y-78759580D01*
X103414628Y-78774376D01*
X103426405Y-78790586D01*
X103426406Y-78790587D01*
X103462309Y-78820288D01*
X103466620Y-78824210D01*
X104035007Y-79392597D01*
X104450762Y-79808352D01*
X104484247Y-79869675D01*
X104482856Y-79928126D01*
X104455938Y-80028586D01*
X104455936Y-80028596D01*
X104435341Y-80263999D01*
X104435341Y-80264000D01*
X104455936Y-80499403D01*
X104455938Y-80499413D01*
X104517094Y-80727655D01*
X104517096Y-80727659D01*
X104517097Y-80727663D01*
X104597228Y-80899503D01*
X104616965Y-80941830D01*
X104616967Y-80941834D01*
X104725281Y-81096521D01*
X104752505Y-81135401D01*
X104919599Y-81302495D01*
X105098574Y-81427815D01*
X105105594Y-81432730D01*
X105149219Y-81487307D01*
X105156413Y-81556805D01*
X105124890Y-81619160D01*
X105105595Y-81635880D01*
X104919922Y-81765890D01*
X104919920Y-81765891D01*
X104752891Y-81932920D01*
X104752886Y-81932926D01*
X104617400Y-82126420D01*
X104617399Y-82126422D01*
X104517570Y-82340507D01*
X104517567Y-82340513D01*
X104460364Y-82553999D01*
X104460364Y-82554000D01*
X105357314Y-82554000D01*
X105331507Y-82594156D01*
X105291000Y-82732111D01*
X105291000Y-82875889D01*
X105331507Y-83013844D01*
X105357314Y-83054000D01*
X104460364Y-83054000D01*
X104517567Y-83267486D01*
X104517570Y-83267492D01*
X104617399Y-83481578D01*
X104752894Y-83675082D01*
X104919917Y-83842105D01*
X105113421Y-83977600D01*
X105327507Y-84077429D01*
X105327516Y-84077433D01*
X105541000Y-84134634D01*
X105541000Y-83239501D01*
X105648685Y-83288680D01*
X105755237Y-83304000D01*
X105826763Y-83304000D01*
X105933315Y-83288680D01*
X106040999Y-83239501D01*
X106040999Y-84134633D01*
X106254483Y-84077433D01*
X106254492Y-84077429D01*
X106468578Y-83977600D01*
X106662082Y-83842105D01*
X106829105Y-83675082D01*
X106964600Y-83481578D01*
X107064429Y-83267492D01*
X107064432Y-83267486D01*
X107121636Y-83054000D01*
X106224686Y-83054000D01*
X106250493Y-83013844D01*
X106291000Y-82875889D01*
X106291000Y-82732111D01*
X106250493Y-82594156D01*
X106224686Y-82554000D01*
X107121636Y-82554000D01*
X107121635Y-82553999D01*
X107064432Y-82340513D01*
X107064429Y-82340507D01*
X106964600Y-82126422D01*
X106964599Y-82126420D01*
X106829113Y-81932926D01*
X106829108Y-81932920D01*
X106662078Y-81765890D01*
X106476405Y-81635879D01*
X106432780Y-81581302D01*
X106425588Y-81511804D01*
X106457110Y-81449449D01*
X106476406Y-81432730D01*
X106662401Y-81302495D01*
X106829495Y-81135401D01*
X106965035Y-80941830D01*
X107064903Y-80727663D01*
X107126063Y-80499408D01*
X107146659Y-80264000D01*
X107126063Y-80028592D01*
X107064903Y-79800337D01*
X106965035Y-79586171D01*
X106829495Y-79392599D01*
X106829494Y-79392597D01*
X106662402Y-79225506D01*
X106662396Y-79225501D01*
X106476842Y-79095575D01*
X106433217Y-79040998D01*
X106426023Y-78971500D01*
X106457546Y-78909145D01*
X106476842Y-78892425D01*
X106579864Y-78820288D01*
X106662401Y-78762495D01*
X106829495Y-78595401D01*
X106965035Y-78401830D01*
X107064903Y-78187663D01*
X107126063Y-77959408D01*
X107146659Y-77724000D01*
X107126063Y-77488592D01*
X107075713Y-77300680D01*
X107064905Y-77260344D01*
X107064904Y-77260343D01*
X107064903Y-77260337D01*
X106965035Y-77046171D01*
X106945421Y-77018158D01*
X106829494Y-76852597D01*
X106662402Y-76685506D01*
X106662396Y-76685501D01*
X106476842Y-76555575D01*
X106433217Y-76500998D01*
X106426023Y-76431500D01*
X106457546Y-76369145D01*
X106476842Y-76352425D01*
X106499026Y-76336891D01*
X106662401Y-76222495D01*
X106829495Y-76055401D01*
X106965035Y-75861830D01*
X107064903Y-75647663D01*
X107126063Y-75419408D01*
X107146659Y-75184000D01*
X107126063Y-74948592D01*
X107064903Y-74720337D01*
X106965035Y-74506171D01*
X106829495Y-74312599D01*
X106829494Y-74312597D01*
X106662402Y-74145506D01*
X106662396Y-74145501D01*
X106476842Y-74015575D01*
X106433217Y-73960998D01*
X106426023Y-73891500D01*
X106457546Y-73829145D01*
X106476842Y-73812425D01*
X106499026Y-73796891D01*
X106662401Y-73682495D01*
X106829495Y-73515401D01*
X106965035Y-73321830D01*
X107064903Y-73107663D01*
X107126063Y-72879408D01*
X107146659Y-72644000D01*
X107126063Y-72408592D01*
X107064903Y-72180337D01*
X106965035Y-71966171D01*
X106964652Y-71965623D01*
X106829494Y-71772597D01*
X106662402Y-71605506D01*
X106662396Y-71605501D01*
X106476842Y-71475575D01*
X106433217Y-71420998D01*
X106426023Y-71351500D01*
X106457546Y-71289145D01*
X106476842Y-71272425D01*
X106499026Y-71256891D01*
X106662401Y-71142495D01*
X106829495Y-70975401D01*
X106965035Y-70781830D01*
X107064903Y-70567663D01*
X107126063Y-70339408D01*
X107146659Y-70104000D01*
X107126063Y-69868592D01*
X107064903Y-69640337D01*
X106965035Y-69426171D01*
X106965032Y-69426166D01*
X106829494Y-69232597D01*
X106662402Y-69065506D01*
X106662396Y-69065501D01*
X106476842Y-68935575D01*
X106433217Y-68880998D01*
X106426023Y-68811500D01*
X106457546Y-68749145D01*
X106476842Y-68732425D01*
X106499026Y-68716891D01*
X106662401Y-68602495D01*
X106829495Y-68435401D01*
X106965035Y-68241830D01*
X107064903Y-68027663D01*
X107126063Y-67799408D01*
X107146659Y-67564000D01*
X107126063Y-67328592D01*
X107064903Y-67100337D01*
X106965035Y-66886171D01*
X106829495Y-66692599D01*
X106829494Y-66692597D01*
X106662402Y-66525506D01*
X106662396Y-66525501D01*
X106476842Y-66395575D01*
X106433217Y-66340998D01*
X106426023Y-66271500D01*
X106457546Y-66209145D01*
X106476842Y-66192425D01*
X106499026Y-66176891D01*
X106662401Y-66062495D01*
X106829495Y-65895401D01*
X106965035Y-65701830D01*
X107064903Y-65487663D01*
X107126063Y-65259408D01*
X107146659Y-65024000D01*
X107126063Y-64788592D01*
X107064903Y-64560337D01*
X106965035Y-64346171D01*
X106829495Y-64152599D01*
X106829494Y-64152597D01*
X106662402Y-63985506D01*
X106662396Y-63985501D01*
X106476842Y-63855575D01*
X106433217Y-63800998D01*
X106426023Y-63731500D01*
X106457546Y-63669145D01*
X106476842Y-63652425D01*
X106499026Y-63636891D01*
X106662401Y-63522495D01*
X106829495Y-63355401D01*
X106965035Y-63161830D01*
X107064903Y-62947663D01*
X107126063Y-62719408D01*
X107146659Y-62484000D01*
X107126063Y-62248592D01*
X107064903Y-62020337D01*
X106965035Y-61806171D01*
X106870110Y-61670604D01*
X106829496Y-61612600D01*
X106808009Y-61591113D01*
X106707567Y-61490671D01*
X106674084Y-61429351D01*
X106679068Y-61359659D01*
X106720939Y-61303725D01*
X106751915Y-61286810D01*
X106883331Y-61237796D01*
X106998546Y-61151546D01*
X107084796Y-61036331D01*
X107135091Y-60901483D01*
X107141500Y-60841873D01*
X107141499Y-59046128D01*
X107135091Y-58986517D01*
X107130508Y-58974230D01*
X107084797Y-58851671D01*
X107084793Y-58851664D01*
X106998547Y-58736455D01*
X106998544Y-58736452D01*
X106883335Y-58650206D01*
X106883328Y-58650202D01*
X106748482Y-58599908D01*
X106748483Y-58599908D01*
X106688883Y-58593501D01*
X106688881Y-58593500D01*
X106688873Y-58593500D01*
X106688864Y-58593500D01*
X104893129Y-58593500D01*
X104893123Y-58593501D01*
X104833516Y-58599908D01*
X104698671Y-58650202D01*
X104698664Y-58650206D01*
X104583455Y-58736452D01*
X104583452Y-58736455D01*
X104497206Y-58851664D01*
X104497202Y-58851671D01*
X104446908Y-58986517D01*
X104441443Y-59037352D01*
X104440501Y-59046123D01*
X104440500Y-59046135D01*
X104440500Y-60358546D01*
X104420815Y-60425585D01*
X104404181Y-60446227D01*
X103737228Y-61113181D01*
X103675905Y-61146666D01*
X103649547Y-61149500D01*
X103430000Y-61149500D01*
X103362961Y-61129815D01*
X103317206Y-61077011D01*
X103306000Y-61025500D01*
X103306000Y-60609304D01*
X103303098Y-60572432D01*
X103303097Y-60572426D01*
X103257245Y-60414606D01*
X103257244Y-60414602D01*
X103233805Y-60374968D01*
X103190768Y-60302195D01*
X103173500Y-60239075D01*
X103173500Y-59178878D01*
X103193185Y-59111839D01*
X103197480Y-59105763D01*
X103198115Y-59104688D01*
X103198117Y-59104687D01*
X103280494Y-58965395D01*
X103325643Y-58809993D01*
X103328500Y-58773690D01*
X103328499Y-58459321D01*
X103330027Y-58439921D01*
X103331346Y-58431595D01*
X103328775Y-58404395D01*
X103328500Y-58398558D01*
X103328500Y-58304308D01*
X103326691Y-58281323D01*
X103326500Y-58276457D01*
X103326500Y-57781522D01*
X103346185Y-57714483D01*
X103398989Y-57668728D01*
X103468147Y-57658784D01*
X103531703Y-57687809D01*
X103538183Y-57693843D01*
X103557655Y-57713316D01*
X103706875Y-57805356D01*
X103706880Y-57805358D01*
X103873302Y-57860505D01*
X103873309Y-57860506D01*
X103976019Y-57870999D01*
X104325999Y-57870999D01*
X104326000Y-57870998D01*
X104326000Y-56921000D01*
X104826000Y-56921000D01*
X104826000Y-57870999D01*
X105175972Y-57870999D01*
X105175986Y-57870998D01*
X105278697Y-57860505D01*
X105445119Y-57805358D01*
X105445124Y-57805356D01*
X105594345Y-57713315D01*
X105718315Y-57589345D01*
X105810356Y-57440124D01*
X105810358Y-57440119D01*
X105865505Y-57273697D01*
X105865506Y-57273690D01*
X105875999Y-57170986D01*
X105876000Y-57170973D01*
X105876000Y-56921000D01*
X104826000Y-56921000D01*
X104326000Y-56921000D01*
X104326000Y-55555000D01*
X104345685Y-55487961D01*
X104398489Y-55442206D01*
X104419327Y-55437672D01*
X104426000Y-55430999D01*
X104426000Y-54595624D01*
X104440505Y-54668545D01*
X104495760Y-54751240D01*
X104578455Y-54806495D01*
X104676000Y-54825898D01*
X104773545Y-54806495D01*
X104856240Y-54751240D01*
X104911495Y-54668545D01*
X104926000Y-54595624D01*
X104926000Y-55437000D01*
X104906315Y-55504039D01*
X104853511Y-55549794D01*
X104832672Y-55554327D01*
X104826000Y-55561000D01*
X104826000Y-56421000D01*
X105875998Y-56421000D01*
X105875999Y-56171028D01*
X105875998Y-56171013D01*
X105865505Y-56068302D01*
X105810358Y-55901880D01*
X105810356Y-55901875D01*
X105718315Y-55752654D01*
X105594345Y-55628684D01*
X105445124Y-55536643D01*
X105445119Y-55536641D01*
X105340346Y-55501923D01*
X105282901Y-55462150D01*
X105256078Y-55397634D01*
X105268393Y-55328859D01*
X105293919Y-55294342D01*
X105400535Y-55192997D01*
X105400535Y-55192996D01*
X105510913Y-55034413D01*
X105587106Y-54856862D01*
X105626000Y-54667606D01*
X105626000Y-54471000D01*
X104926000Y-54471000D01*
X104926000Y-53971000D01*
X105626000Y-53971000D01*
X105626000Y-53822823D01*
X105611352Y-53678778D01*
X105553515Y-53494438D01*
X105553510Y-53494428D01*
X105459748Y-53325501D01*
X105459743Y-53325494D01*
X105333892Y-53178894D01*
X105181109Y-53060631D01*
X105181105Y-53060629D01*
X105007642Y-52975542D01*
X105007643Y-52975542D01*
X104926000Y-52954403D01*
X104926000Y-53846376D01*
X104911495Y-53773455D01*
X104856240Y-53690760D01*
X104773545Y-53635505D01*
X104676000Y-53616102D01*
X104578455Y-53635505D01*
X104495760Y-53690760D01*
X104440505Y-53773455D01*
X104426000Y-53846376D01*
X104426000Y-52950528D01*
X104255472Y-53013685D01*
X104255468Y-53013687D01*
X104091496Y-53115892D01*
X104086141Y-53120983D01*
X104023988Y-53152900D01*
X103954445Y-53146148D01*
X103899592Y-53102870D01*
X103895175Y-53096200D01*
X103868317Y-53052656D01*
X103744345Y-52928684D01*
X103595124Y-52836643D01*
X103595119Y-52836641D01*
X103428697Y-52781494D01*
X103428690Y-52781493D01*
X103325986Y-52771000D01*
X102826000Y-52771000D01*
X102826000Y-53971000D01*
X104426000Y-53971000D01*
X104426000Y-54471000D01*
X100426000Y-54471000D01*
X100426000Y-55607341D01*
X100406315Y-55674380D01*
X100353511Y-55720135D01*
X100285814Y-55730280D01*
X100276000Y-55728987D01*
X100275999Y-55728988D01*
X100275999Y-55771500D01*
X100256314Y-55838540D01*
X100227489Y-55869872D01*
X100197720Y-55892715D01*
X100190688Y-55901880D01*
X100137182Y-55971611D01*
X100098376Y-56022184D01*
X100041948Y-56063386D01*
X99972202Y-56067541D01*
X99911281Y-56033329D01*
X99878529Y-55971611D01*
X99876000Y-55946697D01*
X99876000Y-55772361D01*
X99895685Y-55705322D01*
X99912319Y-55684680D01*
X99926000Y-55670999D01*
X99926000Y-54471000D01*
X98326000Y-54471000D01*
X98326000Y-53971000D01*
X99926000Y-53971000D01*
X99926000Y-52771000D01*
X100426000Y-52771000D01*
X100426000Y-53971000D01*
X102326000Y-53971000D01*
X102326000Y-52771000D01*
X101826028Y-52771000D01*
X101826012Y-52771001D01*
X101723302Y-52781494D01*
X101556880Y-52836641D01*
X101556871Y-52836645D01*
X101441096Y-52908056D01*
X101373704Y-52926496D01*
X101310904Y-52908056D01*
X101195128Y-52836645D01*
X101195119Y-52836641D01*
X101028697Y-52781494D01*
X101028690Y-52781493D01*
X100925986Y-52771000D01*
X100426000Y-52771000D01*
X99926000Y-52771000D01*
X99426028Y-52771000D01*
X99426012Y-52771001D01*
X99323302Y-52781494D01*
X99156880Y-52836641D01*
X99156875Y-52836643D01*
X99007654Y-52928684D01*
X98883682Y-53052656D01*
X98854967Y-53099211D01*
X98803019Y-53145935D01*
X98734056Y-53157156D01*
X98673528Y-53132169D01*
X98581109Y-53060632D01*
X98581105Y-53060629D01*
X98407642Y-52975542D01*
X98407643Y-52975542D01*
X98326000Y-52954403D01*
X98326000Y-53846376D01*
X98311495Y-53773455D01*
X98256240Y-53690760D01*
X98173545Y-53635505D01*
X98076000Y-53616102D01*
X97978455Y-53635505D01*
X97895760Y-53690760D01*
X97840505Y-53773455D01*
X97826000Y-53846376D01*
X97826000Y-52950528D01*
X97655472Y-53013685D01*
X97655468Y-53013687D01*
X97491496Y-53115892D01*
X97351465Y-53249002D01*
X97351464Y-53249003D01*
X97241086Y-53407586D01*
X97164893Y-53585137D01*
X97126000Y-53774393D01*
X97126000Y-53971000D01*
X97826000Y-53971000D01*
X97826000Y-54471000D01*
X97126000Y-54471000D01*
X97125999Y-54619176D01*
X97140647Y-54763221D01*
X97198484Y-54947561D01*
X97198489Y-54947571D01*
X97292251Y-55116498D01*
X97292256Y-55116505D01*
X97418107Y-55263105D01*
X97448089Y-55286313D01*
X97489053Y-55342914D01*
X97492914Y-55412677D01*
X97458444Y-55473452D01*
X97411193Y-55502075D01*
X97306878Y-55536642D01*
X97306875Y-55536643D01*
X97157654Y-55628684D01*
X97033684Y-55752654D01*
X96941643Y-55901875D01*
X96941641Y-55901880D01*
X96886494Y-56068302D01*
X96886493Y-56068309D01*
X96876000Y-56171013D01*
X96876000Y-56421000D01*
X97926000Y-56421000D01*
X97926000Y-55561000D01*
X97916023Y-55551023D01*
X97882961Y-55541315D01*
X97837206Y-55488511D01*
X97826000Y-55437000D01*
X97826000Y-54595624D01*
X97840505Y-54668545D01*
X97895760Y-54751240D01*
X97978455Y-54806495D01*
X98076000Y-54825898D01*
X98173545Y-54806495D01*
X98256240Y-54751240D01*
X98311495Y-54668545D01*
X98326000Y-54595624D01*
X98326000Y-55430999D01*
X98335976Y-55440976D01*
X98369039Y-55450685D01*
X98414794Y-55503489D01*
X98426000Y-55555000D01*
X98426000Y-57870999D01*
X98775972Y-57870999D01*
X98775986Y-57870998D01*
X98878697Y-57860505D01*
X99045119Y-57805358D01*
X99045124Y-57805356D01*
X99194344Y-57713315D01*
X99227586Y-57680074D01*
X99288908Y-57646588D01*
X99358600Y-57651572D01*
X99414534Y-57693442D01*
X99429829Y-57720302D01*
X99451899Y-57773586D01*
X99548075Y-57898924D01*
X99673414Y-57995100D01*
X99819366Y-58055555D01*
X99819372Y-58055557D01*
X99875998Y-58063011D01*
X99876000Y-58063010D01*
X99876000Y-57845302D01*
X99895685Y-57778263D01*
X99948489Y-57732508D01*
X100017647Y-57722564D01*
X100081203Y-57751589D01*
X100098376Y-57769816D01*
X100101463Y-57773839D01*
X100101464Y-57773841D01*
X100197718Y-57899282D01*
X100227485Y-57922123D01*
X100268688Y-57978548D01*
X100276000Y-58020499D01*
X100276000Y-58063010D01*
X100332631Y-58055555D01*
X100352887Y-58047165D01*
X100422356Y-58039693D01*
X100447798Y-58047163D01*
X100469238Y-58056044D01*
X100586639Y-58071500D01*
X100702816Y-58071499D01*
X100769855Y-58091183D01*
X100815610Y-58143987D01*
X100825554Y-58213145D01*
X100821893Y-58230093D01*
X100810854Y-58268087D01*
X100809209Y-58288999D01*
X100809210Y-58289000D01*
X101643500Y-58289000D01*
X101710539Y-58308685D01*
X101756294Y-58361489D01*
X101767500Y-58413000D01*
X101767500Y-58773692D01*
X101770356Y-58809991D01*
X101770357Y-58809997D01*
X101815503Y-58965389D01*
X101815505Y-58965393D01*
X101815506Y-58965395D01*
X101820732Y-58974233D01*
X101838000Y-59037352D01*
X101838000Y-59343504D01*
X101872952Y-59369747D01*
X101914743Y-59425740D01*
X101922500Y-59468908D01*
X101922500Y-59900500D01*
X101902815Y-59967539D01*
X101850011Y-60013294D01*
X101798500Y-60024500D01*
X101414804Y-60024500D01*
X101377932Y-60027401D01*
X101377926Y-60027402D01*
X101220106Y-60073254D01*
X101220103Y-60073255D01*
X101161806Y-60107732D01*
X101098685Y-60125000D01*
X100443000Y-60125000D01*
X100443000Y-60675000D01*
X100706000Y-60675000D01*
X100773039Y-60694685D01*
X100818794Y-60747489D01*
X100830000Y-60799000D01*
X100830000Y-60850500D01*
X100810315Y-60917539D01*
X100757511Y-60963294D01*
X100706000Y-60974500D01*
X99539804Y-60974500D01*
X99502932Y-60977401D01*
X99502929Y-60977402D01*
X99478078Y-60984622D01*
X99408209Y-60984421D01*
X99349539Y-60946479D01*
X99320697Y-60882840D01*
X99319867Y-60875266D01*
X99319145Y-60866087D01*
X99303569Y-60812475D01*
X99303768Y-60742605D01*
X99341710Y-60683935D01*
X99405348Y-60655091D01*
X99457241Y-60658803D01*
X99503007Y-60672099D01*
X99503010Y-60672100D01*
X99539856Y-60675000D01*
X99943000Y-60675000D01*
X99943000Y-60125000D01*
X98958205Y-60125000D01*
X98958204Y-60125001D01*
X98958399Y-60127488D01*
X98975862Y-60187595D01*
X98975662Y-60257464D01*
X98937719Y-60316134D01*
X98874081Y-60344977D01*
X98822191Y-60341266D01*
X98782912Y-60329854D01*
X98762000Y-60328209D01*
X98761999Y-60328210D01*
X98762000Y-61040514D01*
X98742315Y-61107553D01*
X98689511Y-61153308D01*
X98653544Y-61163535D01*
X98650669Y-61163898D01*
X98647205Y-61164336D01*
X98647203Y-61164337D01*
X98603878Y-61181490D01*
X98598352Y-61183382D01*
X98553608Y-61196383D01*
X98553604Y-61196385D01*
X98536365Y-61206580D01*
X98518898Y-61215137D01*
X98500269Y-61222512D01*
X98500267Y-61222514D01*
X98462564Y-61249905D01*
X98457684Y-61253111D01*
X98445346Y-61260408D01*
X98430430Y-61269229D01*
X98367306Y-61286500D01*
X98277308Y-61286500D01*
X98241008Y-61289356D01*
X98241002Y-61289357D01*
X98085610Y-61334503D01*
X98085604Y-61334506D01*
X98085605Y-61334506D01*
X98076766Y-61339732D01*
X98013648Y-61357000D01*
X97707496Y-61357000D01*
X97749968Y-61503194D01*
X97761911Y-61523389D01*
X97779092Y-61591113D01*
X97761911Y-61649628D01*
X97749506Y-61670604D01*
X97749504Y-61670609D01*
X97704357Y-61826002D01*
X97704356Y-61826008D01*
X97701500Y-61862308D01*
X97701500Y-62271692D01*
X97704356Y-62307991D01*
X97704357Y-62307997D01*
X97749504Y-62463390D01*
X97749505Y-62463393D01*
X97831881Y-62602684D01*
X97831887Y-62602692D01*
X97946307Y-62717112D01*
X97946311Y-62717115D01*
X97946313Y-62717117D01*
X98085605Y-62799494D01*
X98126587Y-62811400D01*
X98241002Y-62844642D01*
X98241005Y-62844642D01*
X98241007Y-62844643D01*
X98253107Y-62845595D01*
X98277308Y-62847500D01*
X98277310Y-62847500D01*
X98746692Y-62847500D01*
X98764841Y-62846071D01*
X98782993Y-62844643D01*
X98782995Y-62844642D01*
X98782997Y-62844642D01*
X98823975Y-62832736D01*
X98938395Y-62799494D01*
X99077687Y-62717117D01*
X99192117Y-62602687D01*
X99203913Y-62582739D01*
X99254978Y-62535058D01*
X99323719Y-62522551D01*
X99345236Y-62526783D01*
X99502931Y-62572598D01*
X99515222Y-62573565D01*
X99539804Y-62575500D01*
X99539806Y-62575500D01*
X100846196Y-62575500D01*
X100864631Y-62574049D01*
X100883069Y-62572598D01*
X100883071Y-62572597D01*
X100883073Y-62572597D01*
X100924691Y-62560505D01*
X101040898Y-62526744D01*
X101182365Y-62443081D01*
X101182370Y-62443075D01*
X101188628Y-62436819D01*
X101249951Y-62403334D01*
X101276309Y-62400500D01*
X103136500Y-62400500D01*
X103203539Y-62420185D01*
X103249294Y-62472989D01*
X103260500Y-62524500D01*
X103260500Y-65298149D01*
X103240815Y-65365188D01*
X103224181Y-65385830D01*
X101147831Y-67462180D01*
X101086508Y-67495665D01*
X101060150Y-67498499D01*
X99322506Y-67498499D01*
X99306495Y-67496731D01*
X99306473Y-67496973D01*
X99298706Y-67496239D01*
X99298705Y-67496239D01*
X99226798Y-67498499D01*
X99196076Y-67498499D01*
X99196072Y-67498499D01*
X99196062Y-67498500D01*
X99188794Y-67499418D01*
X99182977Y-67499875D01*
X99134437Y-67501401D01*
X99134426Y-67501403D01*
X99114050Y-67507322D01*
X99095009Y-67511265D01*
X99073954Y-67513925D01*
X99073938Y-67513929D01*
X99028771Y-67531811D01*
X99023244Y-67533704D01*
X98979281Y-67546476D01*
X98909412Y-67546276D01*
X98850742Y-67508333D01*
X98821899Y-67444695D01*
X98828505Y-67384066D01*
X98849194Y-67328596D01*
X98876091Y-67256482D01*
X98882500Y-67196872D01*
X98882499Y-65301127D01*
X98876091Y-65241516D01*
X98825796Y-65106668D01*
X98825795Y-65106667D01*
X98825793Y-65106663D01*
X98739547Y-64991454D01*
X98739544Y-64991451D01*
X98624335Y-64905205D01*
X98624328Y-64905201D01*
X98489482Y-64854907D01*
X98489483Y-64854907D01*
X98429883Y-64848500D01*
X98429881Y-64848499D01*
X98429873Y-64848499D01*
X98429864Y-64848499D01*
X96134129Y-64848499D01*
X96134123Y-64848500D01*
X96074516Y-64854907D01*
X95939671Y-64905201D01*
X95939664Y-64905205D01*
X95824455Y-64991451D01*
X95824452Y-64991454D01*
X95738206Y-65106663D01*
X95738202Y-65106670D01*
X95687908Y-65241516D01*
X95681820Y-65298149D01*
X95681501Y-65301122D01*
X95681500Y-65301134D01*
X95681500Y-67196869D01*
X95681501Y-67196875D01*
X95687908Y-67256482D01*
X95738202Y-67391327D01*
X95738206Y-67391334D01*
X95824452Y-67506543D01*
X95824455Y-67506546D01*
X95939664Y-67592792D01*
X95939671Y-67592796D01*
X96074517Y-67643090D01*
X96074516Y-67643090D01*
X96081444Y-67643834D01*
X96134127Y-67649499D01*
X98429872Y-67649498D01*
X98489483Y-67643090D01*
X98489485Y-67643089D01*
X98489487Y-67643089D01*
X98497031Y-67641307D01*
X98497476Y-67643192D01*
X98556933Y-67638934D01*
X98618260Y-67672413D01*
X98651751Y-67733733D01*
X98646773Y-67803425D01*
X98618268Y-67847784D01*
X94850483Y-71615569D01*
X94837910Y-71625643D01*
X94838065Y-71625830D01*
X94832059Y-71630798D01*
X94807434Y-71657020D01*
X94782809Y-71683244D01*
X94771949Y-71694104D01*
X94761088Y-71704965D01*
X94761078Y-71704977D01*
X94756587Y-71710765D01*
X94752801Y-71715197D01*
X94719552Y-71750606D01*
X94709322Y-71769213D01*
X94698646Y-71785464D01*
X94685640Y-71802232D01*
X94685636Y-71802238D01*
X94666348Y-71846811D01*
X94663777Y-71852058D01*
X94636614Y-71901468D01*
X94635333Y-71900764D01*
X94597654Y-71949057D01*
X94531715Y-71972162D01*
X94463752Y-71955950D01*
X94415344Y-71905567D01*
X94401341Y-71848326D01*
X94401341Y-60857000D01*
X97707496Y-60857000D01*
X98262000Y-60857000D01*
X98262000Y-60328209D01*
X98261999Y-60328209D01*
X98241087Y-60329854D01*
X98241081Y-60329855D01*
X98085809Y-60374966D01*
X98085804Y-60374968D01*
X97946625Y-60457278D01*
X97946616Y-60457285D01*
X97832285Y-60571616D01*
X97832278Y-60571625D01*
X97749968Y-60710804D01*
X97707496Y-60857000D01*
X94401341Y-60857000D01*
X94401341Y-59624998D01*
X98958204Y-59624998D01*
X98958205Y-59625000D01*
X99943000Y-59625000D01*
X100443000Y-59625000D01*
X101427795Y-59625000D01*
X101427795Y-59624998D01*
X101427600Y-59622511D01*
X101427599Y-59622505D01*
X101381783Y-59464806D01*
X101381781Y-59464800D01*
X101355268Y-59419969D01*
X101338000Y-59356848D01*
X101338000Y-58789000D01*
X100809210Y-58789000D01*
X100810854Y-58809910D01*
X100841794Y-58916406D01*
X100841594Y-58986275D01*
X100803651Y-59044945D01*
X100740013Y-59073788D01*
X100722717Y-59075000D01*
X100443000Y-59075000D01*
X100443000Y-59625000D01*
X99943000Y-59625000D01*
X99943000Y-59075000D01*
X99539856Y-59075000D01*
X99503010Y-59077899D01*
X99503004Y-59077900D01*
X99345306Y-59123716D01*
X99345303Y-59123717D01*
X99203947Y-59207314D01*
X99203938Y-59207321D01*
X99087821Y-59323438D01*
X99087814Y-59323447D01*
X99004218Y-59464801D01*
X98958399Y-59622513D01*
X98958204Y-59624998D01*
X94401341Y-59624998D01*
X94401341Y-56921000D01*
X96876001Y-56921000D01*
X96876001Y-57170986D01*
X96886494Y-57273697D01*
X96941641Y-57440119D01*
X96941643Y-57440124D01*
X97033684Y-57589345D01*
X97157654Y-57713315D01*
X97306875Y-57805356D01*
X97306880Y-57805358D01*
X97473302Y-57860505D01*
X97473309Y-57860506D01*
X97576019Y-57870999D01*
X97925999Y-57870999D01*
X97926000Y-57870998D01*
X97926000Y-56921000D01*
X96876001Y-56921000D01*
X94401341Y-56921000D01*
X94401341Y-54104036D01*
X94401474Y-54099981D01*
X94402868Y-54078692D01*
X94406833Y-54018202D01*
X94420140Y-53832157D01*
X94421166Y-53824542D01*
X94444602Y-53706722D01*
X94476587Y-53559691D01*
X94478450Y-53552978D01*
X94519456Y-53432180D01*
X94569689Y-53297500D01*
X94572163Y-53291769D01*
X94629991Y-53174510D01*
X94641791Y-53152900D01*
X94697727Y-53050459D01*
X94700571Y-53045762D01*
X94773273Y-52936958D01*
X94775143Y-52934314D01*
X94858334Y-52823184D01*
X94861308Y-52819516D01*
X94948008Y-52720656D01*
X94950716Y-52717764D01*
X95048568Y-52619912D01*
X95051464Y-52617199D01*
X95150422Y-52530417D01*
X95154062Y-52527466D01*
X95265015Y-52444407D01*
X95267660Y-52442537D01*
X95376743Y-52369651D01*
X95381419Y-52366821D01*
X95504957Y-52299363D01*
X95622791Y-52241256D01*
X95628524Y-52238780D01*
X95762212Y-52188916D01*
X95884040Y-52147563D01*
X95890784Y-52145691D01*
X96035798Y-52114145D01*
X96155653Y-52090307D01*
X96163287Y-52089279D01*
X96342474Y-52076462D01*
X96421307Y-52071296D01*
X96431441Y-52070633D01*
X96435496Y-52070500D01*
X106423964Y-52070500D01*
X106428019Y-52070633D01*
G37*
G04 #@! TD.AperFunction*
G04 #@! TD*
M02*
